<?xml version="1.0" encoding="UTF-8" standalone="no"?>
<!-- Created with Inkscape (http://www.inkscape.org/) -->

<svg
   width="28.510302mm"
   height="55.045834mm"
   viewBox="0 0 28.510302 55.045833"
   version="1.1"
   id="svg5"
   inkscape:version="1.3.2 (091e20ef0f, 2023-11-25, custom)"
   sodipodi:docname="bzgkis.svg"
   xml:space="preserve"
   inkscape:export-filename="logo-xs.png"
   inkscape:export-xdpi="27.093334"
   inkscape:export-ydpi="27.093334"
   xmlns:inkscape="http://www.inkscape.org/namespaces/inkscape"
   xmlns:sodipodi="http://sodipodi.sourceforge.net/DTD/sodipodi-0.dtd"
   xmlns="http://www.w3.org/2000/svg"
   xmlns:svg="http://www.w3.org/2000/svg"><sodipodi:namedview
     id="namedview7"
     pagecolor="#fefefe"
     bordercolor="#eeeeee"
     borderopacity="1"
     inkscape:showpageshadow="0"
     inkscape:pageopacity="0"
     inkscape:pagecheckerboard="0"
     inkscape:deskcolor="#fcfcfc"
     inkscape:document-units="mm"
     showgrid="false"
     inkscape:zoom="2.1828391"
     inkscape:cx="19.699116"
     inkscape:cy="82.690474"
     inkscape:window-width="1900"
     inkscape:window-height="1036"
     inkscape:window-x="10"
     inkscape:window-y="10"
     inkscape:window-maximized="1"
     inkscape:current-layer="layer1"
     showguides="true" /><defs
     id="defs2"><inkscape:path-effect
       effect="bspline"
       id="path-effect95870"
       is_visible="true"
       lpeversion="1"
       weight="33.333333"
       steps="2"
       helper_size="0"
       apply_no_weight="true"
       apply_with_weight="true"
       only_selected="false"
       uniform="false" /><inkscape:path-effect
       effect="bspline"
       id="path-effect95140"
       is_visible="true"
       lpeversion="1"
       weight="33.333333"
       steps="2"
       helper_size="0"
       apply_no_weight="true"
       apply_with_weight="true"
       only_selected="false"
       uniform="false" /><inkscape:path-effect
       effect="bspline"
       id="path-effect95136"
       is_visible="true"
       lpeversion="1"
       weight="33.333333"
       steps="2"
       helper_size="0"
       apply_no_weight="true"
       apply_with_weight="true"
       only_selected="false"
       uniform="false" /><inkscape:path-effect
       effect="bspline"
       id="path-effect95136-6"
       is_visible="true"
       lpeversion="1"
       weight="33.333333"
       steps="2"
       helper_size="0"
       apply_no_weight="true"
       apply_with_weight="true"
       only_selected="false"
       uniform="false" /><clipPath
       clipPathUnits="userSpaceOnUse"
       id="clipPath392"><rect
         style="opacity:0.639959;fill:#f9b1cf;fill-opacity:0.639216;stroke-width:1"
         id="rect394"
         width="222.49139"
         height="153.5433"
         x="-96.254814"
         y="-0.085285775" /></clipPath><inkscape:path-effect
       effect="powerstroke"
       id="path-effect18-0-8-9"
       is_visible="true"
       lpeversion="1.3"
       scale_width="1"
       interpolator_type="CubicBezierJohan"
       interpolator_beta="0.2"
       start_linecap_type="zerowidth"
       end_linecap_type="zerowidth"
       offset_points="0.00014032479,0.5"
       linejoin_type="extrp_arc"
       miter_limit="4"
       not_jump="false"
       sort_points="true"
       message="stroke-width:2;stroke-opacity:0.2;fill:#6e6e6f;stroke:#919190" /></defs><g
     inkscape:label="Layer 1"
     inkscape:groupmode="layer"
     id="layer1"
     transform="translate(-53.428105,-81.86531)"><g
       id="g1"><path
         style="fill:#fbdd6a;fill-opacity:1;stroke:#92400e;stroke-width:0.0336247px;stroke-linecap:butt;stroke-linejoin:miter;stroke-opacity:1"
         d="m 55.668386,87.870503 c -0.85885,1.13469 -1.38077,2.5269 -1.71217,3.910857 -0.46514,1.94252 -0.68862,4.01501 -0.34374,5.982457 0.39382,2.250663 1.39831,4.421933 2.69746,6.301503 1.04793,1.51611 3.0085,3.39768 4.76473,3.95662 1.71724,0.54654 2.29353,0.83419 3.94417,0.8264 1.17658,-0.006 2.89145,-0.15797 3.98166,-0.60047 0.68673,-0.27873 1.01988,-0.88944 1.7229,-1.12399 0.76357,-0.25473 1.77364,-0.17393 2.55284,-0.37587 1.42768,-0.37001 2.50602,-0.87845 3.63827,-1.82355 1.26893,-1.05917 2.470124,-2.53065 3.260879,-3.98207 0.720992,-1.323373 1.332246,-2.747683 1.588864,-4.232703 0.258295,-1.494817 0.17443,-3.054257 -0.07688,-4.550267 -0.197854,-1.1775 -0.825305,-2.288447 -1.361617,-3.355237 -0.632346,-1.25782 -1.206562,-2.49063 -2.190636,-3.497405 -1.10096,-1.126381 -2.35016,-2.187472 -3.79429,-2.816231 -0.97333,-0.423777 -2.07738,-0.702693 -3.1317,-0.578822 -1.32702,0.155912 -2.5203,0.933927 -3.66547,1.622294 -0.74362,0.446995 -1.24991,1.265028 -2.04699,1.607748 -0.64226,0.276153 -1.3768,0.268817 -2.07494,0.305877 -0.9074,0.04815 -1.82319,-0.230556 -2.72381,-0.109833 -1.09791,0.147176 -2.19441,0.475282 -3.16802,1.003652 -0.70574,0.38302 -1.37689,0.88878 -1.86151,1.52905 z"
         id="path2-1-8-3-9"
         sodipodi:nodetypes="sssssssssssssssssssssss" /><path
         style="fill:#fbbf24;fill-opacity:1;stroke:#b45309;stroke-width:0.0336247px;stroke-linecap:butt;stroke-linejoin:miter;stroke-opacity:1"
         d="m 64.771596,87.900161 c 0.27328,0.04933 0.49969,-0.247107 0.76414,-0.331856 0.29304,-0.09391 0.68208,0.02149 0.90277,-0.192963 0.37356,-0.363003 0.22115,-1.01905 0.37027,-1.51813 0.13322,-0.445894 0.22511,-0.918245 0.46747,-1.315522 0.23209,-0.380426 0.56931,-0.693585 0.91532,-0.974411 0.37353,-0.303155 0.79936,-0.541592 1.23267,-0.750525 0.54631,-0.263404 1.12171,-0.471819 1.70806,-0.626705 0.40957,-0.108188 1.2536,-0.208506 1.2536,-0.208506 0,0 -0.78609,-0.111855 -1.17677,-0.06979 -0.50649,0.05454 -0.99835,0.223936 -1.47128,0.413181 -0.54906,0.219696 -1.05852,0.529906 -1.56752,0.83099 -0.36754,0.217412 -0.73348,0.441335 -1.07097,0.702969 -0.35709,0.276832 -0.61907,0.673413 -1.00274,0.912056 -0.46727,0.290641 -0.89136,0.48197 -1.53624,0.604376 -0.37363,0.07096 -0.75833,0.07117 -1.13865,0.07236 -0.42925,0.0013 -0.85725,-0.04653 -1.28566,-0.07365 -0.32129,-0.02034 -0.64167,-0.0759 -0.96348,-0.06676 -0.39163,0.01112 -0.78081,0.07628 -1.16606,0.147613 -0.24392,0.04512 -0.72275,0.177077 -0.72275,0.177077 0,0 0.87302,-0.07655 1.30944,-0.05642 0.391,0.01801 0.78864,0.04572 1.16356,0.15822 0.45544,0.136677 0.8874,0.358226 1.2858,0.617827 0.39536,0.257618 0.72683,0.602508 1.07625,0.919638 0.22376,0.203069 0.35543,0.575317 0.65277,0.628991 z"
         id="path3-9-9-5-3"
         sodipodi:nodetypes="sssssssscsssssssssscsssss" /><path
         style="fill:#fde872;fill-opacity:1;stroke:#92400e;stroke-width:0.0225418px;stroke-linecap:butt;stroke-linejoin:miter;stroke-opacity:1"
         d="m 62.632976,98.383335 c -0.33731,-0.523095 -0.6322,-1.086719 -0.80583,-1.684432 -0.13955,-0.48065 -0.29219,-1.003425 -0.17846,-1.490878 0.11905,-0.510685 0.48341,-0.95176 0.85845,-1.318261 0.40211,-0.39297 0.94146,-0.616998 1.43425,-0.887685 0.52298,-0.28727 1.2598,-0.458546 1.61155,-0.77924 0.35176,-0.320696 0.38427,-0.568091 0.55056,-0.912816 0.16628,-0.344722 0.28609,-0.834767 0.30905,-0.994918 0.0229,-0.160147 0.53767,0.371168 0.71784,0.509584 0.18019,0.138406 0.17876,0.181482 0.37147,0.308414 0.19262,0.126942 0.47708,0.331186 0.80255,0.410225 0.32547,0.07905 0.73909,0.01832 1.10825,0.0044 0.43309,-0.01636 0.8661,-0.157557 1.29608,-0.103147 0.40968,0.05179 0.8153,0.193743 1.1716,0.40245 0.42625,0.249689 0.76119,0.632817 1.10545,0.987102 0.39124,0.402581 0.83774,0.783932 1.08529,1.287765 0.29625,0.602959 0.49818,1.301895 0.42624,1.969831 -0.051,0.473091 -0.25121,0.89411 -0.47988,1.311397 -0.19204,0.350457 -0.40494,0.572677 -0.67437,0.889814 -0.28438,0.334724 -0.65157,0.621874 -0.98592,0.906664 -0.46743,0.398117 -0.95692,0.773092 -1.52339,1.198956 -0.36209,0.27221 -0.77718,0.76897 -1.37544,0.94994 -0.30264,0.0915 -1.40881,-0.005 -1.71989,-0.0619 -0.72693,-0.13242 -1.91939,-0.39869 -2.24298,-0.46948 -0.51235,-0.1121 -0.96488,-0.36993 -1.38764,-0.68032 -0.61562,-0.451991 -1.06084,-1.111605 -1.47474,-1.753444 z"
         id="path5-7-2-3-2-6"
         sodipodi:nodetypes="ssssszzzzzzsssssssssssssss" /><path
         style="fill:#fdee9b;fill-opacity:1;stroke:#b45309;stroke-width:0.0202228px;stroke-linecap:butt;stroke-linejoin:miter;stroke-opacity:1"
         d="m 66.438576,99.591546 c -0.49373,-0.142214 -0.7334,-0.727601 -1.02805,-1.148534 -0.19996,-0.285721 -0.38243,-0.591953 -0.49365,-0.922503 -0.13909,-0.41333 -0.23709,-0.857087 -0.20628,-1.291944 0.0311,-0.429165 0.20787,-0.839866 0.38428,-1.232329 0.15207,-0.338328 0.39015,-0.631147 0.57458,-0.952985 0.14673,-0.256088 0.36053,-0.703555 0.45396,-0.773109 0.0745,-0.05544 0.19631,-0.02326 0.27775,0.02125 0.17352,0.09489 0.25727,0.302953 0.35703,0.473649 0.21478,0.367407 0.36456,0.770377 0.51109,1.169919 0.22626,0.617198 0.44422,1.243163 0.56601,1.889157 0.0734,0.393701 0.13431,0.798639 0.0978,1.197474 -0.0295,0.32232 -0.0662,0.673142 -0.25311,0.937383 -0.16044,0.226868 -0.43522,0.354243 -0.68645,0.472997 -0.17424,0.08236 -0.37052,0.213035 -0.55573,0.159684 z"
         id="path6-8-6-91-0"
         sodipodi:nodetypes="sssssssssssssss" /><path
         style="fill:#fdee9b;fill-opacity:1;stroke:#b45309;stroke-width:0.0204105px;stroke-linecap:butt;stroke-linejoin:miter;stroke-opacity:1"
         d="m 71.278816,98.300465 c 0.32962,-0.40035 0.19466,-1.024358 0.19946,-1.542913 0.003,-0.35197 -0.02,-0.710996 -0.1162,-1.049574 -0.12031,-0.423385 -0.2923,-0.848604 -0.56691,-1.192573 -0.27098,-0.339371 -0.65267,-0.580135 -1.02363,-0.805949 -0.31979,-0.19467 -0.68515,-0.302339 -1.02244,-0.464809 -0.26839,-0.129272 -0.70186,-0.379507 -0.81933,-0.38402 -0.0936,-0.0036 -0.17666,0.09272 -0.21899,0.176348 -0.09,0.178034 -0.0409,0.399019 -0.0266,0.598068 0.0313,0.428369 0.13663,0.849278 0.24293,1.265428 0.1642,0.642837 0.34044,1.288177 0.60806,1.895281 0.16298,0.36987 0.34439,0.741274 0.60252,1.052335 0.20866,0.251372 0.43957,0.522318 0.74601,0.635446 0.2631,0.09713 0.56449,0.04618 0.84138,0.0015 0.19204,-0.03099 0.42998,-0.03436 0.55363,-0.184532 z"
         id="path6-8-7-3-3-2"
         sodipodi:nodetypes="sssssssssssssss" /><path
         style="fill:#fbbf24;fill-opacity:1;stroke:#b45309;stroke-width:0.0336247px;stroke-linecap:butt;stroke-linejoin:miter;stroke-opacity:1"
         d="m 69.761806,105.81724 c -0.0667,0.32377 -0.3125,0.58628 -0.51506,0.84756 -0.0943,0.12157 -0.18462,0.26149 -0.32215,0.33036 -0.31902,0.15973 -0.74222,-0.0205 -1.06122,0.13926 -0.35049,0.17555 -0.51788,0.59339 -0.82086,0.84215 -0.29587,0.24295 -0.60738,0.48386 -0.96275,0.62627 -0.37834,0.15162 -1.2018,0.22561 -1.2018,0.22561 0,0 1.13748,0.0368 1.70298,-0.0127 0.56676,-0.0497 1.13778,-0.12151 1.68294,-0.28427 0.39113,-0.11678 0.76908,-0.28573 1.12166,-0.49145 0.38356,-0.2238 0.66593,-0.60627 1.06587,-0.79928 0.33041,-0.15946 0.70361,-0.21424 1.0648,-0.27852 0.42422,-0.0756 0.86204,-0.0512 1.28666,-0.12442 0.40327,-0.0695 0.80179,-0.17129 1.191,-0.29769 0.41605,-0.13513 0.82511,-0.29664 1.21721,-0.49061 0.36271,-0.17943 0.70885,-0.39283 1.04405,-0.61959 0.22935,-0.15517 0.44587,-0.32907 0.65938,-0.50542 0.19136,-0.15805 0.55648,-0.49469 0.55648,-0.49469 0,0 -0.70828,0.34331 -1.06451,0.51062 -0.27655,0.1299 -0.54485,0.28078 -0.83282,0.38292 -0.3383,0.12001 -0.68668,0.22571 -1.04326,0.26727 -0.42572,0.0496 -0.86512,-0.10733 -1.28555,-0.0241 -0.21106,0.0418 -0.37983,0.29275 -0.59203,0.25715 -0.50446,-0.0846 -0.863,-0.60145 -1.13087,-1.03719 -0.1656,-0.26916 -0.59536,-1.02212 -0.68816,-1.21866 -0.1005,-0.21298 -0.62134,-1.08098 -0.73112,-0.84183 -0.11151,0.24303 -0.16606,1.12918 -0.16712,1.52442 -0.001,0.55394 -0.11662,1.28947 -0.17375,1.56681 z"
         id="path4-0-3-7-62-6"
         sodipodi:nodetypes="sssssscsssssssssscssssssssss" /></g><g
       id="g2"
       transform="matrix(-1,0,0,1,135.36651,28.094764)"><path
         style="fill:#fbdd6a;fill-opacity:1;stroke:#92400e;stroke-width:0.0336247px;stroke-linecap:butt;stroke-linejoin:miter;stroke-opacity:1"
         d="m 55.668386,87.870503 c -0.85885,1.13469 -1.38077,2.5269 -1.71217,3.910857 -0.46514,1.94252 -0.68862,4.01501 -0.34374,5.982457 0.39382,2.250663 1.39831,4.421933 2.69746,6.301503 1.04793,1.51611 3.0085,3.39768 4.76473,3.95662 1.71724,0.54654 2.29353,0.83419 3.94417,0.8264 1.17658,-0.006 2.89145,-0.15797 3.98166,-0.60047 0.68673,-0.27873 1.01988,-0.88944 1.7229,-1.12399 0.76357,-0.25473 1.77364,-0.17393 2.55284,-0.37587 1.42768,-0.37001 2.50602,-0.87845 3.63827,-1.82355 1.26893,-1.05917 2.470124,-2.53065 3.260879,-3.98207 0.720992,-1.323373 1.332246,-2.747683 1.588864,-4.232703 0.258295,-1.494817 0.17443,-3.054257 -0.07688,-4.550267 -0.197854,-1.1775 -0.825305,-2.288447 -1.361617,-3.355237 -0.632346,-1.25782 -1.206562,-2.49063 -2.190636,-3.497405 -1.10096,-1.126381 -2.35016,-2.187472 -3.79429,-2.816231 -0.97333,-0.423777 -2.07738,-0.702693 -3.1317,-0.578822 -1.32702,0.155912 -2.5203,0.933927 -3.66547,1.622294 -0.74362,0.446995 -1.24991,1.265028 -2.04699,1.607748 -0.64226,0.276153 -1.3768,0.268817 -2.07494,0.305877 -0.9074,0.04815 -1.82319,-0.230556 -2.72381,-0.109833 -1.09791,0.147176 -2.19441,0.475282 -3.16802,1.003652 -0.70574,0.38302 -1.37689,0.88878 -1.86151,1.52905 z"
         id="path2-1-8-3-9-6"
         sodipodi:nodetypes="sssssssssssssssssssssss" /><path
         style="fill:#fbbf24;fill-opacity:1;stroke:#b45309;stroke-width:0.0336247px;stroke-linecap:butt;stroke-linejoin:miter;stroke-opacity:1"
         d="m 64.771596,87.900161 c 0.27328,0.04933 0.49969,-0.247107 0.76414,-0.331856 0.29304,-0.09391 0.68208,0.02149 0.90277,-0.192963 0.37356,-0.363003 0.22115,-1.01905 0.37027,-1.51813 0.13322,-0.445894 0.22511,-0.918245 0.46747,-1.315522 0.23209,-0.380426 0.56931,-0.693585 0.91532,-0.974411 0.37353,-0.303155 0.79936,-0.541592 1.23267,-0.750525 0.54631,-0.263404 1.12171,-0.471819 1.70806,-0.626705 0.40957,-0.108188 1.2536,-0.208506 1.2536,-0.208506 0,0 -0.78609,-0.111855 -1.17677,-0.06979 -0.50649,0.05454 -0.99835,0.223936 -1.47128,0.413181 -0.54906,0.219696 -1.05852,0.529906 -1.56752,0.83099 -0.36754,0.217412 -0.73348,0.441335 -1.07097,0.702969 -0.35709,0.276832 -0.61907,0.673413 -1.00274,0.912056 -0.46727,0.290641 -0.89136,0.48197 -1.53624,0.604376 -0.37363,0.07096 -0.75833,0.07117 -1.13865,0.07236 -0.42925,0.0013 -0.85725,-0.04653 -1.28566,-0.07365 -0.32129,-0.02034 -0.64167,-0.0759 -0.96348,-0.06676 -0.39163,0.01112 -0.78081,0.07628 -1.16606,0.147613 -0.24392,0.04512 -0.72275,0.177077 -0.72275,0.177077 0,0 0.87302,-0.07655 1.30944,-0.05642 0.391,0.01801 0.78864,0.04572 1.16356,0.15822 0.45544,0.136677 0.8874,0.358226 1.2858,0.617827 0.39536,0.257618 0.72683,0.602508 1.07625,0.919638 0.22376,0.203069 0.35543,0.575317 0.65277,0.628991 z"
         id="path3-9-9-5-3-2"
         sodipodi:nodetypes="sssssssscsssssssssscsssss" /><path
         style="fill:#fde872;fill-opacity:1;stroke:#92400e;stroke-width:0.0225418px;stroke-linecap:butt;stroke-linejoin:miter;stroke-opacity:1"
         d="m 62.632976,98.383335 c -0.33731,-0.523095 -0.6322,-1.086719 -0.80583,-1.684432 -0.13955,-0.48065 -0.29219,-1.003425 -0.17846,-1.490878 0.11905,-0.510685 0.48341,-0.95176 0.85845,-1.318261 0.40211,-0.39297 0.94146,-0.616998 1.43425,-0.887685 0.52298,-0.28727 1.2598,-0.458546 1.61155,-0.77924 0.35176,-0.320696 0.38427,-0.568091 0.55056,-0.912816 0.16628,-0.344722 0.28609,-0.834767 0.30905,-0.994918 0.0229,-0.160147 0.53767,0.371168 0.71784,0.509584 0.18019,0.138406 0.17876,0.181482 0.37147,0.308414 0.19262,0.126942 0.47708,0.331186 0.80255,0.410225 0.32547,0.07905 0.73909,0.01832 1.10825,0.0044 0.43309,-0.01636 0.8661,-0.157557 1.29608,-0.103147 0.40968,0.05179 0.8153,0.193743 1.1716,0.40245 0.42625,0.249689 0.76119,0.632817 1.10545,0.987102 0.39124,0.402581 0.83774,0.783932 1.08529,1.287765 0.29625,0.602959 0.49818,1.301895 0.42624,1.969831 -0.051,0.473091 -0.25121,0.89411 -0.47988,1.311397 -0.19204,0.350457 -0.40494,0.572677 -0.67437,0.889814 -0.28438,0.334724 -0.65157,0.621874 -0.98592,0.906664 -0.46743,0.398117 -0.95692,0.773092 -1.52339,1.198956 -0.36209,0.27221 -0.77718,0.76897 -1.37544,0.94994 -0.30264,0.0915 -1.40881,-0.005 -1.71989,-0.0619 -0.72693,-0.13242 -1.91939,-0.39869 -2.24298,-0.46948 -0.51235,-0.1121 -0.96488,-0.36993 -1.38764,-0.68032 -0.61562,-0.451991 -1.06084,-1.111605 -1.47474,-1.753444 z"
         id="path5-7-2-3-2-6-9"
         sodipodi:nodetypes="ssssszzzzzzsssssssssssssss" /><path
         style="fill:#fdee9b;fill-opacity:1;stroke:#b45309;stroke-width:0.0202228px;stroke-linecap:butt;stroke-linejoin:miter;stroke-opacity:1"
         d="m 66.438576,99.591546 c -0.49373,-0.142214 -0.7334,-0.727601 -1.02805,-1.148534 -0.19996,-0.285721 -0.38243,-0.591953 -0.49365,-0.922503 -0.13909,-0.41333 -0.23709,-0.857087 -0.20628,-1.291944 0.0311,-0.429165 0.20787,-0.839866 0.38428,-1.232329 0.15207,-0.338328 0.39015,-0.631147 0.57458,-0.952985 0.14673,-0.256088 0.36053,-0.703555 0.45396,-0.773109 0.0745,-0.05544 0.19631,-0.02326 0.27775,0.02125 0.17352,0.09489 0.25727,0.302953 0.35703,0.473649 0.21478,0.367407 0.36456,0.770377 0.51109,1.169919 0.22626,0.617198 0.44422,1.243163 0.56601,1.889157 0.0734,0.393701 0.13431,0.798639 0.0978,1.197474 -0.0295,0.32232 -0.0662,0.673142 -0.25311,0.937383 -0.16044,0.226868 -0.43522,0.354243 -0.68645,0.472997 -0.17424,0.08236 -0.37052,0.213035 -0.55573,0.159684 z"
         id="path6-8-6-91-0-1"
         sodipodi:nodetypes="sssssssssssssss" /><path
         style="fill:#fdee9b;fill-opacity:1;stroke:#b45309;stroke-width:0.0204105px;stroke-linecap:butt;stroke-linejoin:miter;stroke-opacity:1"
         d="m 71.278816,98.300465 c 0.32962,-0.40035 0.19466,-1.024358 0.19946,-1.542913 0.003,-0.35197 -0.02,-0.710996 -0.1162,-1.049574 -0.12031,-0.423385 -0.2923,-0.848604 -0.56691,-1.192573 -0.27098,-0.339371 -0.65267,-0.580135 -1.02363,-0.805949 -0.31979,-0.19467 -0.68515,-0.302339 -1.02244,-0.464809 -0.26839,-0.129272 -0.70186,-0.379507 -0.81933,-0.38402 -0.0936,-0.0036 -0.17666,0.09272 -0.21899,0.176348 -0.09,0.178034 -0.0409,0.399019 -0.0266,0.598068 0.0313,0.428369 0.13663,0.849278 0.24293,1.265428 0.1642,0.642837 0.34044,1.288177 0.60806,1.895281 0.16298,0.36987 0.34439,0.741274 0.60252,1.052335 0.20866,0.251372 0.43957,0.522318 0.74601,0.635446 0.2631,0.09713 0.56449,0.04618 0.84138,0.0015 0.19204,-0.03099 0.42998,-0.03436 0.55363,-0.184532 z"
         id="path6-8-7-3-3-2-2"
         sodipodi:nodetypes="sssssssssssssss" /><path
         style="fill:#fbbf24;fill-opacity:1;stroke:#b45309;stroke-width:0.0336247px;stroke-linecap:butt;stroke-linejoin:miter;stroke-opacity:1"
         d="m 69.761806,105.81724 c -0.0667,0.32377 -0.3125,0.58628 -0.51506,0.84756 -0.0943,0.12157 -0.18462,0.26149 -0.32215,0.33036 -0.31902,0.15973 -0.74222,-0.0205 -1.06122,0.13926 -0.35049,0.17555 -0.51788,0.59339 -0.82086,0.84215 -0.29587,0.24295 -0.60738,0.48386 -0.96275,0.62627 -0.37834,0.15162 -1.2018,0.22561 -1.2018,0.22561 0,0 1.13748,0.0368 1.70298,-0.0127 0.56676,-0.0497 1.13778,-0.12151 1.68294,-0.28427 0.39113,-0.11678 0.76908,-0.28573 1.12166,-0.49145 0.38356,-0.2238 0.66593,-0.60627 1.06587,-0.79928 0.33041,-0.15946 0.70361,-0.21424 1.0648,-0.27852 0.42422,-0.0756 0.86204,-0.0512 1.28666,-0.12442 0.40327,-0.0695 0.80179,-0.17129 1.191,-0.29769 0.41605,-0.13513 0.82511,-0.29664 1.21721,-0.49061 0.36271,-0.17943 0.70885,-0.39283 1.04405,-0.61959 0.22935,-0.15517 0.44587,-0.32907 0.65938,-0.50542 0.19136,-0.15805 0.55648,-0.49469 0.55648,-0.49469 0,0 -0.70828,0.34331 -1.06451,0.51062 -0.27655,0.1299 -0.54485,0.28078 -0.83282,0.38292 -0.3383,0.12001 -0.68668,0.22571 -1.04326,0.26727 -0.42572,0.0496 -0.86512,-0.10733 -1.28555,-0.0241 -0.21106,0.0418 -0.37983,0.29275 -0.59203,0.25715 -0.50446,-0.0846 -0.863,-0.60145 -1.13087,-1.03719 -0.1656,-0.26916 -0.59536,-1.02212 -0.68816,-1.21866 -0.1005,-0.21298 -0.62134,-1.08098 -0.73112,-0.84183 -0.11151,0.24303 -0.16606,1.12918 -0.16712,1.52442 -0.001,0.55394 -0.11662,1.28947 -0.17375,1.56681 z"
         id="path4-0-3-7-62-6-7"
         sodipodi:nodetypes="sssssscsssssssssscssssssssss" /></g></g></svg>
