<?xml version="1.0" encoding="UTF-8" standalone="no"?>
<!-- Created with Inkscape (http://www.inkscape.org/) -->

<svg
   width="29.566235mm"
   height="56.503372mm"
   viewBox="0 0 29.566235 56.503372"
   version="1.1"
   id="svg5"
   inkscape:version="1.3.2 (091e20ef0f, 2023-11-25, custom)"
   sodipodi:docname="jabsok.svg"
   xml:space="preserve"
   inkscape:export-filename="logo-xs.png"
   inkscape:export-xdpi="27.093334"
   inkscape:export-ydpi="27.093334"
   xmlns:inkscape="http://www.inkscape.org/namespaces/inkscape"
   xmlns:sodipodi="http://sodipodi.sourceforge.net/DTD/sodipodi-0.dtd"
   xmlns="http://www.w3.org/2000/svg"
   xmlns:svg="http://www.w3.org/2000/svg"><sodipodi:namedview
     id="namedview7"
     pagecolor="#fefefe"
     bordercolor="#eeeeee"
     borderopacity="1"
     inkscape:showpageshadow="0"
     inkscape:pageopacity="0"
     inkscape:pagecheckerboard="0"
     inkscape:deskcolor="#fcfcfc"
     inkscape:document-units="mm"
     showgrid="false"
     inkscape:zoom="3.1715553"
     inkscape:cx="51.07904"
     inkscape:cy="153.71007"
     inkscape:window-width="1900"
     inkscape:window-height="1036"
     inkscape:window-x="10"
     inkscape:window-y="10"
     inkscape:window-maximized="1"
     inkscape:current-layer="layer1"
     showguides="true" /><defs
     id="defs2"><inkscape:path-effect
       effect="bspline"
       id="path-effect95870"
       is_visible="true"
       lpeversion="1"
       weight="33.333333"
       steps="2"
       helper_size="0"
       apply_no_weight="true"
       apply_with_weight="true"
       only_selected="false"
       uniform="false" /><inkscape:path-effect
       effect="bspline"
       id="path-effect95140"
       is_visible="true"
       lpeversion="1"
       weight="33.333333"
       steps="2"
       helper_size="0"
       apply_no_weight="true"
       apply_with_weight="true"
       only_selected="false"
       uniform="false" /><inkscape:path-effect
       effect="bspline"
       id="path-effect95136"
       is_visible="true"
       lpeversion="1"
       weight="33.333333"
       steps="2"
       helper_size="0"
       apply_no_weight="true"
       apply_with_weight="true"
       only_selected="false"
       uniform="false" /><inkscape:path-effect
       effect="bspline"
       id="path-effect95136-6"
       is_visible="true"
       lpeversion="1"
       weight="33.333333"
       steps="2"
       helper_size="0"
       apply_no_weight="true"
       apply_with_weight="true"
       only_selected="false"
       uniform="false" /><clipPath
       clipPathUnits="userSpaceOnUse"
       id="clipPath392"><rect
         style="opacity:0.639959;fill:#f9b1cf;fill-opacity:0.639216;stroke-width:1"
         id="rect394"
         width="222.49139"
         height="153.5433"
         x="-96.254814"
         y="-0.085285775" /></clipPath><inkscape:path-effect
       effect="powerstroke"
       id="path-effect18-0-8-9"
       is_visible="true"
       lpeversion="1.3"
       scale_width="1"
       interpolator_type="CubicBezierJohan"
       interpolator_beta="0.2"
       start_linecap_type="zerowidth"
       end_linecap_type="zerowidth"
       offset_points="0.00014032479,0.5"
       linejoin_type="extrp_arc"
       miter_limit="4"
       not_jump="false"
       sort_points="true"
       message="stroke-width:2;stroke-opacity:0.2;fill:#6e6e6f;stroke:#919190" /></defs><g
     inkscape:label="Layer 1"
     inkscape:groupmode="layer"
     id="layer1"
     transform="translate(-52.898943,-81.336144)"><g
       id="g1"><path
         style="fill:#ffedd5;fill-opacity:1;stroke:#c2410c;stroke-width:0.0298887px;stroke-linecap:butt;stroke-linejoin:miter;stroke-opacity:1"
         d="m 55.220089,91.4584 c -0.890811,1.176925 -1.432153,2.620956 -1.775884,4.056426 -0.482449,2.014825 -0.714245,4.164457 -0.356531,6.205134 0.408475,2.33444 1.450344,4.58653 2.797838,6.53606 1.086926,1.57254 3.120453,3.52415 4.942036,4.10389 1.781143,0.56689 2.378878,0.86524 4.090941,0.85716 1.220364,-0.006 2.999048,-0.16385 4.129827,-0.62282 0.712285,-0.2891 1.057832,-0.92254 1.787013,-1.16583 0.791984,-0.26421 1.839641,-0.1804 2.647836,-0.38985 1.480808,-0.38379 2.599275,-0.91115 3.773659,-1.89143 1.316149,-1.09859 2.562042,-2.62484 3.382223,-4.1303 0.747822,-1.37262 1.381822,-2.84995 1.647989,-4.39025 0.267906,-1.550452 0.18092,-3.167937 -0.07974,-4.719631 -0.205217,-1.221329 -0.856016,-2.373628 -1.412286,-3.480126 -0.655876,-1.304638 -1.251461,-2.583336 -2.272154,-3.627585 -1.141929,-1.168307 -2.437616,-2.268894 -3.935484,-2.921056 -1.00955,-0.439551 -2.154684,-0.728849 -3.248237,-0.600367 -1.376402,0.161715 -2.614086,0.968689 -3.80187,1.682679 -0.771292,0.463633 -1.296422,1.312114 -2.123163,1.667591 -0.666161,0.286432 -1.428034,0.278823 -2.152154,0.317262 -0.941167,0.04994 -1.891034,-0.239137 -2.825168,-0.113921 -1.138766,0.152654 -2.276069,0.492973 -3.28591,1.04101 -0.732003,0.397277 -1.428127,0.921862 -1.93078,1.585964 z"
         id="path2-1-8-3-9"
         sodipodi:nodetypes="sssssssssssssssssssssss" /><path
         style="fill:#ea580c;fill-opacity:1;stroke:#7c2d12;stroke-width:0.0298887px;stroke-linecap:butt;stroke-linejoin:miter;stroke-opacity:1"
         d="m 64.662048,91.489162 c 0.28345,0.05117 0.518286,-0.256305 0.792575,-0.344209 0.303945,-0.09741 0.707463,0.02229 0.936365,-0.200145 0.387461,-0.376515 0.229379,-1.056981 0.384048,-1.574638 0.138177,-0.462491 0.233487,-0.952424 0.484866,-1.364488 0.240726,-0.394586 0.590495,-0.719402 0.949381,-1.01068 0.38743,-0.314439 0.829106,-0.561751 1.278541,-0.778461 0.566638,-0.273209 1.16345,-0.489381 1.77162,-0.650033 0.424812,-0.112214 1.300249,-0.216266 1.300249,-0.216266 0,0 -0.815342,-0.116019 -1.22056,-0.07239 -0.525338,0.05657 -1.035501,0.232271 -1.52603,0.42856 -0.569492,0.227874 -1.09791,0.54963 -1.625851,0.861921 -0.381217,0.225505 -0.760774,0.457762 -1.110823,0.729135 -0.370378,0.287136 -0.642107,0.698479 -1.040054,0.946004 -0.484658,0.30146 -0.924529,0.49991 -1.593407,0.626872 -0.387533,0.0736 -0.786549,0.07382 -1.181022,0.07505 -0.445223,0.0014 -0.88915,-0.04826 -1.333502,-0.07639 -0.333246,-0.0211 -0.665548,-0.07872 -0.999333,-0.06924 -0.406203,0.01153 -0.809866,0.07912 -1.209452,0.153108 -0.252996,0.0468 -0.749645,0.183668 -0.749645,0.183668 0,0 0.905507,-0.0794 1.358167,-0.05852 0.40555,0.01868 0.817987,0.04742 1.206859,0.164109 0.472388,0.141765 0.920422,0.37156 1.333647,0.640824 0.410073,0.267207 0.753877,0.624934 1.1163,0.953869 0.232087,0.210627 0.368656,0.596731 0.677061,0.652403 z"
         id="path3-9-9-5-3"
         sodipodi:nodetypes="sssssssscsssssssssscsssss" /><path
         style="fill:#7c2d12;fill-opacity:1;stroke:none;stroke-width:0.0423298px;stroke-linecap:butt;stroke-linejoin:miter;stroke-opacity:1"
         d="m 65.180715,91.323479 c 0,0 -0.323457,-1.341605 -0.567979,-1.984885 -0.283003,-0.744543 -0.679894,-1.440791 -1.034617,-2.153966 -0.289446,-0.581957 -0.550677,-1.180802 -0.892287,-1.733754 -0.418538,-0.677477 -0.875071,-1.338684 -1.410348,-1.928281 -0.240929,-0.265372 -0.518003,-0.497717 -0.802706,-0.715454 -0.151574,-0.115918 -0.456979,-0.123181 -0.47953,-0.312661 -0.06276,-0.526955 0.561736,-1.144961 1.09226,-1.158276 0.17382,-0.0043 0.260946,0.231078 0.37643,0.361045 0.160672,0.180817 0.302888,0.378007 0.437259,0.57914 0.239171,0.357992 0.431286,0.74534 0.654374,1.113571 0.30801,0.508417 0.659075,0.99124 0.944429,1.512711 0.295717,0.540428 0.536045,1.109466 0.792653,1.669523 0.247639,0.540477 0.494557,1.081606 0.720731,1.631408 0.1572,0.382116 0.302679,0.769094 0.441936,1.158105 0.103056,0.287895 0.214768,0.573832 0.291192,0.869913 0.08688,0.336617 0.24436,0.922466 0.24436,0.922466 0,0 -0.266937,-0.06526 -0.418391,-0.04217 -0.14613,0.0224 -0.389766,0.211554 -0.389766,0.211554 z"
         id="path4-3-7-3-4-7-7-3"
         sodipodi:nodetypes="cssssssssssssssscsc" /><path
         style="fill:#ffe9cc;fill-opacity:1;stroke:#c2410c;stroke-width:0.0200372px;stroke-linecap:butt;stroke-linejoin:miter;stroke-opacity:1"
         d="m 62.443846,102.36254 c -0.349862,-0.54257 -0.655725,-1.12717 -0.835816,-1.74713 -0.144743,-0.49854 -0.303063,-1.040775 -0.185101,-1.546372 0.12348,-0.529693 0.501399,-0.987186 0.890395,-1.367329 0.417073,-0.407597 0.976493,-0.639964 1.487621,-0.920726 0.542441,-0.297963 1.30668,-0.475614 1.67152,-0.808245 0.364849,-0.332633 0.398569,-0.589236 0.571047,-0.946793 0.172468,-0.357553 0.296736,-0.865838 0.32055,-1.031951 0.02375,-0.166108 0.557677,0.384984 0.744553,0.528552 0.186895,0.143558 0.185411,0.188237 0.385293,0.319894 0.199788,0.131667 0.494833,0.343513 0.832415,0.425494 0.337581,0.08199 0.766593,0.019 1.14949,0.0046 0.449206,-0.01697 0.89833,-0.163421 1.344309,-0.106986 0.424925,0.05372 0.84564,0.200955 1.215198,0.41743 0.442112,0.258983 0.789517,0.656371 1.146586,1.023844 0.405799,0.417565 0.868914,0.813111 1.125676,1.335698 0.307275,0.625402 0.516719,1.350354 0.442102,2.043152 -0.0529,0.490698 -0.260559,0.927388 -0.497737,1.360208 -0.199186,0.3635 -0.420009,0.59399 -0.699466,0.92294 -0.294962,0.34718 -0.675815,0.64502 -1.022608,0.94041 -0.484824,0.41293 -0.992529,0.80187 -1.580079,1.24358 -0.375564,0.28234 -0.8061,0.79759 -1.426623,0.9853 -0.313902,0.095 -1.461235,-0.005 -1.783891,-0.0642 -0.75398,-0.13735 -1.990814,-0.41353 -2.326446,-0.48696 -0.531415,-0.11627 -1.000785,-0.38369 -1.439277,-0.70564 -0.638529,-0.46881 -1.100316,-1.15298 -1.529618,-1.81871 z"
         id="path5-7-2-3-2-6"
         sodipodi:nodetypes="ssssszzzzzzsssssssssssssss" /><path
         style="fill:#ffe0b8;fill-opacity:1;stroke:#431407;stroke-width:0.0179758px;stroke-linecap:butt;stroke-linejoin:miter;stroke-opacity:1"
         d="m 66.391061,103.61572 c -0.512103,-0.14751 -0.760691,-0.75468 -1.066306,-1.19128 -0.207401,-0.29636 -0.396661,-0.61399 -0.51202,-0.95684 -0.144266,-0.42872 -0.245913,-0.88899 -0.213956,-1.34004 0.03226,-0.445134 0.215605,-0.871123 0.39858,-1.278194 0.157729,-0.350921 0.404668,-0.654639 0.595961,-0.988457 0.152191,-0.26562 0.373947,-0.729742 0.470853,-0.801885 0.07727,-0.0575 0.203615,-0.02413 0.288086,0.02204 0.179977,0.09842 0.266844,0.314229 0.370316,0.491279 0.222772,0.381082 0.378126,0.799052 0.530109,1.213465 0.234679,0.640172 0.46075,1.289432 0.587072,1.959472 0.07613,0.40836 0.139308,0.82837 0.101439,1.24205 -0.0306,0.33432 -0.06866,0.6982 -0.262528,0.97227 -0.166411,0.23532 -0.451416,0.36743 -0.711995,0.49061 -0.180723,0.0854 -0.384307,0.22096 -0.57641,0.16562 z"
         id="path6-8-6-91-0"
         sodipodi:nodetypes="sssssssssssssss" /><path
         style="fill:#ffe9cc;fill-opacity:1;stroke:#9a3412;stroke-width:0.0120193px;stroke-linecap:butt;stroke-linejoin:miter;stroke-opacity:1"
         d="m 66.344085,102.57551 c -0.348875,-0.10163 -0.517087,-0.51603 -0.724543,-0.81428 -0.140819,-0.20244 -0.269151,-0.41935 -0.347078,-0.6533 -0.09745,-0.29253 -0.165771,-0.60649 -0.142565,-0.91394 0.02291,-0.303347 0.148862,-0.593327 0.274484,-0.87041 0.108297,-0.238864 0.277323,-0.445365 0.408462,-0.672498 0.104349,-0.180731 0.256535,-0.496623 0.322761,-0.545591 0.0528,-0.03903 0.138889,-0.01598 0.196393,0.01564 0.122459,0.06748 0.18128,0.214753 0.251458,0.335657 0.151044,0.260236 0.25613,0.54546 0.358871,0.82826 0.158706,0.436851 0.311427,0.879892 0.396128,1.336882 0.05159,0.27841 0.09323,0.56494 0.06658,0.84683 -0.02154,0.22781 -0.04832,0.47577 -0.181063,0.66217 -0.11398,0.16005 -0.308588,0.2495 -0.486523,0.3329 -0.123418,0.0579 -0.262512,0.14981 -0.393381,0.11168 z"
         id="path6-8-6-9-1"
         sodipodi:nodetypes="sssssssssssssss" /><path
         style="fill:#7c2d12;fill-opacity:1;stroke:none;stroke-width:0.0120193px;stroke-linecap:butt;stroke-linejoin:miter;stroke-opacity:1"
         d="m 66.512238,101.58594 c 0.164658,-0.13063 0.223141,-0.36011 0.29261,-0.55845 0.0654,-0.18668 0.100161,-0.38518 0.112747,-0.58257 0.01137,-0.17838 -0.0057,-0.35867 -0.03421,-0.535114 -0.03136,-0.194563 -0.0891,-0.384466 -0.15008,-0.571873 -0.04498,-0.138245 -0.08652,-0.280059 -0.158784,-0.406218 -0.05628,-0.09826 -0.130952,-0.186023 -0.210341,-0.266787 -0.05451,-0.05545 -0.10413,-0.133714 -0.180651,-0.147545 -0.05,-0.009 -0.106191,0.0154 -0.144325,0.04898 -0.03783,0.0333 -0.05366,0.08708 -0.06636,0.135845 -0.01951,0.07484 -0.0294,0.1447 -0.0574,0.216785 -0.03129,0.08057 -0.06914,0.145382 -0.11963,0.215543 -0.0807,0.112154 -0.156639,0.22844 -0.220745,0.350833 -0.05792,0.110577 -0.104462,0.227052 -0.146962,0.344412 -0.03943,0.108909 -0.08975,0.217429 -0.09988,0.332809 -0.01892,0.21568 -0.01344,0.31941 0.0086,0.47735 0.02339,0.16758 0.0688,0.33951 0.129257,0.49755 0.04679,0.12236 0.115067,0.23896 0.201437,0.33747 0.06352,0.0725 0.135565,0.14813 0.226737,0.1794 0.11533,0.0396 0.244868,0.0128 0.365742,-0.003 0.08609,-0.0114 0.184191,-0.0113 0.252218,-0.0653 z"
         id="path12-1-4-1-2-2"
         sodipodi:nodetypes="sssssssssssssssssssss" /><path
         style="fill:#ffe9cc;fill-opacity:1;stroke:none;stroke-width:0.00832577px;stroke-linecap:butt;stroke-linejoin:miter;stroke-opacity:1"
         d="m 65.802233,101.08937 c -0.08141,-0.049 -0.08631,-0.17045 -0.113445,-0.2615 -0.03559,-0.11941 -0.05756,-0.24394 -0.06323,-0.3684 -0.0031,-0.0694 0.006,-0.13919 0.01655,-0.20789 0.01141,-0.0741 0.02234,-0.14971 0.05048,-0.2192 0.02888,-0.0713 0.07232,-0.136644 0.11932,-0.197562 0.03129,-0.04056 0.05583,-0.110084 0.10705,-0.110229 0.05031,-1.3e-4 0.08146,0.06365 0.105728,0.107723 0.05179,0.09406 0.05223,0.208358 0.07361,0.313578 0.01922,0.0946 0.04931,0.18877 0.04897,0.28525 -2.05e-4,0.0846 -0.02251,0.16828 -0.04453,0.25003 -0.02272,0.0844 -0.04772,0.16981 -0.08983,0.24643 -0.03132,0.057 -0.06171,0.12368 -0.118903,0.15466 -0.02702,0.0146 -0.06558,0.023 -0.09189,0.007 z"
         id="path13-0-2-2-7"
         sodipodi:nodetypes="ssssssssssssss" /><path
         style="fill:#ffe0b8;fill-opacity:1;stroke:#431407;stroke-width:0.0181427px;stroke-linecap:butt;stroke-linejoin:miter;stroke-opacity:1"
         d="m 71.411417,102.27658 c 0.341886,-0.41525 0.201903,-1.06248 0.206881,-1.60034 0.0031,-0.36507 -0.02074,-0.737459 -0.120524,-1.088639 -0.124787,-0.439145 -0.303177,-0.880191 -0.588006,-1.236963 -0.281063,-0.352003 -0.676957,-0.601729 -1.061721,-0.835948 -0.33169,-0.201916 -0.710646,-0.313593 -1.060487,-0.48211 -0.278378,-0.134084 -0.727977,-0.393633 -0.849818,-0.398314 -0.09708,-0.0037 -0.183234,0.09617 -0.227141,0.182912 -0.09335,0.184661 -0.04242,0.413871 -0.02759,0.620329 0.03246,0.444314 0.141714,0.88089 0.25197,1.31253 0.17031,0.666764 0.353108,1.336123 0.630687,1.965823 0.169045,0.38364 0.357205,0.76887 0.624941,1.09151 0.216425,0.26073 0.455927,0.54176 0.773771,0.6591 0.27289,0.10074 0.585496,0.0479 0.872689,0.002 0.199186,-0.0321 0.445981,-0.0356 0.574232,-0.1914 z"
         id="path6-8-7-3-3-2"
         sodipodi:nodetypes="sssssssssssssss" /><path
         style="fill:#ffe9cc;fill-opacity:1;stroke:#9a3412;stroke-width:0.0120193px;stroke-linecap:butt;stroke-linejoin:miter;stroke-opacity:1"
         d="m 70.808315,101.50923 c 0.253796,-0.26006 0.196475,-0.7036 0.230442,-1.06532 0.02306,-0.24552 0.02813,-0.497503 -0.01906,-0.739526 -0.05901,-0.302639 -0.153912,-0.609606 -0.325314,-0.8659 -0.169124,-0.252868 -0.421397,-0.443421 -0.667041,-0.622908 -0.211762,-0.154728 -0.460488,-0.251412 -0.686372,-0.384692 -0.179737,-0.106052 -0.467595,-0.306267 -0.54934,-0.316337 -0.06516,-0.008 -0.128795,0.05439 -0.163314,0.110198 -0.07345,0.118976 -0.05224,0.276139 -0.05388,0.415924 -0.0035,0.300873 0.04522,0.600904 0.09483,0.89767 0.07664,0.458424 0.161538,0.919298 0.312519,1.358861 0.092,0.26779 0.196639,0.53775 0.35847,0.7701 0.130782,0.18777 0.276039,0.3905 0.483293,0.48753 0.17795,0.0833 0.391389,0.0655 0.587337,0.0506 0.135911,-0.0103 0.302245,0.001 0.397446,-0.0962 z"
         id="path6-8-6-9-1-6"
         sodipodi:nodetypes="sssssssssssssss" /><path
         style="fill:#7c2d12;fill-opacity:1;stroke:none;stroke-width:0.0120193px;stroke-linecap:butt;stroke-linejoin:miter;stroke-opacity:1"
         d="m 70.175261,100.73028 c -0.207611,-0.0328 -0.371387,-0.20383 -0.529409,-0.34236 -0.148748,-0.13039 -0.276635,-0.28613 -0.384665,-0.451817 -0.09762,-0.149722 -0.171429,-0.315094 -0.233368,-0.482755 -0.06837,-0.184833 -0.111489,-0.37858 -0.150551,-0.57175 -0.02882,-0.142495 -0.06239,-0.286403 -0.06151,-0.431789 6.83e-4,-0.113239 0.02254,-0.226374 0.05195,-0.335737 0.02019,-0.07508 0.02491,-0.167637 0.08474,-0.21731 0.0391,-0.03245 0.100038,-0.03881 0.149755,-0.02833 0.04932,0.01039 0.08954,0.04943 0.124589,0.08565 0.05379,0.05557 0.09676,0.111536 0.15659,0.160532 0.06687,0.05477 0.131701,0.09258 0.210162,0.128848 0.125421,0.05797 0.248729,0.121878 0.364737,0.196924 0.104809,0.0678 0.202615,0.146328 0.297334,0.227617 0.08789,0.07544 0.185077,0.145184 0.250636,0.240666 0.122536,0.178494 0.168781,0.271514 0.227225,0.419884 0.06204,0.15742 0.107055,0.329454 0.132136,0.496801 0.01943,0.129551 0.01732,0.264656 -0.0094,0.392906 -0.01968,0.0943 -0.0452,0.19564 -0.109205,0.2677 -0.08097,0.0912 -0.206928,0.13155 -0.320004,0.17713 -0.08055,0.0324 -0.165947,0.0807 -0.251715,0.0672 z"
         id="path12-1-4-1-2-2-1"
         sodipodi:nodetypes="sssssssssssssssssssss" /><path
         style="fill:#ffe9cc;fill-opacity:1;stroke:none;stroke-width:0.00832577px;stroke-linecap:butt;stroke-linejoin:miter;stroke-opacity:1"
         d="m 70.549283,99.948745 c 0.04678,-0.08272 -0.0087,-0.190858 -0.02982,-0.283487 -0.02773,-0.121473 -0.06985,-0.240709 -0.126108,-0.351866 -0.03141,-0.06201 -0.07365,-0.118258 -0.116651,-0.172879 -0.04638,-0.05891 -0.09307,-0.119363 -0.151753,-0.166036 -0.06021,-0.04788 -0.130165,-0.08341 -0.201048,-0.113341 -0.04719,-0.01993 -0.102746,-0.0684 -0.147418,-0.04333 -0.04387,0.02463 -0.03963,0.09548 -0.03909,0.145791 0.0012,0.10737 0.05699,0.207112 0.09012,0.309241 0.02976,0.09177 0.04989,0.188615 0.09764,0.272454 0.04181,0.07361 0.102356,0.135459 0.161728,0.195812 0.0613,0.06235 0.125058,0.124384 0.199406,0.170397 0.0553,0.03421 0.114553,0.07734 0.17959,0.07619 0.03072,-5.56e-4 0.0684,-0.01225 0.08352,-0.03897 z"
         id="path13-0-2-2-7-8"
         sodipodi:nodetypes="ssssssssssssss" /><path
         style="fill:#ea580c;fill-opacity:1;stroke:#7c2d12;stroke-width:0.0298887px;stroke-linecap:butt;stroke-linejoin:miter;stroke-opacity:1"
         d="m 69.837956,110.07314 c -0.06918,0.33583 -0.324129,0.60811 -0.534227,0.87911 -0.09781,0.1261 -0.19149,0.27123 -0.334138,0.34266 -0.330891,0.16568 -0.769839,-0.0213 -1.10071,0.14444 -0.363533,0.1821 -0.537151,0.61548 -0.851406,0.87351 -0.306881,0.25198 -0.629982,0.50187 -0.998576,0.64958 -0.392419,0.15725 -1.246522,0.234 -1.246522,0.234 0,0 1.179809,0.0382 1.766352,-0.0132 0.58785,-0.0515 1.180119,-0.12603 1.745566,-0.29485 0.405685,-0.12112 0.797698,-0.29637 1.163398,-0.50974 0.397834,-0.23214 0.690711,-0.62884 1.105535,-0.82903 0.342704,-0.1654 0.729793,-0.22221 1.104423,-0.28889 0.440005,-0.0784 0.894119,-0.0532 1.33454,-0.12905 0.418276,-0.0721 0.831626,-0.17766 1.235319,-0.30877 0.431533,-0.14016 0.855815,-0.30769 1.262506,-0.50887 0.376207,-0.18611 0.735227,-0.40746 1.082901,-0.64266 0.237885,-0.16094 0.462462,-0.34131 0.683917,-0.52422 0.198481,-0.16394 0.577188,-0.51311 0.577188,-0.51311 0,0 -0.734637,0.35609 -1.104123,0.52963 -0.286841,0.13473 -0.565125,0.29122 -0.863811,0.39717 -0.350889,0.12448 -0.712233,0.23411 -1.082082,0.27722 -0.441562,0.0515 -0.897313,-0.11133 -1.333388,-0.025 -0.218914,0.0433 -0.393965,0.30365 -0.614061,0.26673 -0.523232,-0.0877 -0.895114,-0.62384 -1.172952,-1.07579 -0.171762,-0.27919 -0.617515,-1.06017 -0.713768,-1.26403 -0.10424,-0.22091 -0.644462,-1.12121 -0.758327,-0.87317 -0.115659,0.25209 -0.172239,1.17121 -0.173339,1.58117 -10e-4,0.57456 -0.120959,1.33747 -0.180215,1.62513 z"
         id="path4-0-3-7-62-6"
         sodipodi:nodetypes="sssssscsssssssssscssssssssss" /></g><g
       id="g2"><path
         style="fill:#ffedd5;fill-opacity:1;stroke:#c2410c;stroke-width:0.0298887px;stroke-linecap:butt;stroke-linejoin:miter;stroke-opacity:1"
         d="m 75.695014,121.5092 c 0.667943,0.88249 1.073849,1.96526 1.331584,3.04162 0.361747,1.51077 0.535551,3.12262 0.267332,4.65278 -0.306281,1.75043 -1.087489,3.43911 -2.09786,4.90092 -0.814993,1.17913 -2.339762,2.64251 -3.705611,3.07721 -1.335528,0.42507 -1.783718,0.64878 -3.067448,0.64272 -0.915047,-0.005 -2.248731,-0.12286 -3.096605,-0.46701 -0.534082,-0.21677 -0.793178,-0.69174 -1.339929,-0.87417 -0.593841,-0.19811 -1.37939,-0.13527 -1.985387,-0.29232 -1.110331,-0.28777 -1.948974,-0.6832 -2.829545,-1.41824 -0.986868,-0.82376 -1.921056,-1.96818 -2.53604,-3.09702 -0.560728,-1.02923 -1.036111,-2.13697 -1.235687,-3.29193 -0.20088,-1.16257 -0.135656,-2.37541 0.05979,-3.53891 0.153874,-0.91579 0.641853,-1.77981 1.058952,-2.6095 0.491786,-0.97825 0.938364,-1.93705 1.703695,-2.72006 0.856235,-0.87603 1.82776,-1.70128 2.950884,-2.19029 0.756975,-0.32959 1.615614,-0.54651 2.435576,-0.45017 1.032046,0.12126 1.96008,0.72635 2.850698,1.26172 0.578326,0.34764 0.972076,0.98386 1.591979,1.25041 0.499497,0.21477 1.070761,0.20906 1.613717,0.23789 0.7057,0.0374 1.417925,-0.17931 2.118352,-0.0854 0.853864,0.11446 1.70663,0.36964 2.463824,0.78057 0.548866,0.29789 1.070831,0.69124 1.447727,1.1892 z"
         id="path2-1-8-3-9-7"
         sodipodi:nodetypes="sssssssssssssssssssssss" /><path
         style="fill:#ea580c;fill-opacity:1;stroke:#7c2d12;stroke-width:0.0298887px;stroke-linecap:butt;stroke-linejoin:miter;stroke-opacity:1"
         d="m 68.615294,121.53226 c -0.212535,0.0384 -0.388619,-0.19218 -0.594284,-0.25809 -0.227903,-0.073 -0.530467,0.0167 -0.702101,-0.15008 -0.290524,-0.28232 -0.171991,-0.79255 -0.287965,-1.18071 -0.103607,-0.34678 -0.175072,-0.71415 -0.363559,-1.02313 -0.1805,-0.29587 -0.442762,-0.53942 -0.71186,-0.75783 -0.290501,-0.23578 -0.621676,-0.42122 -0.958669,-0.58371 -0.424874,-0.20486 -0.872372,-0.36696 -1.328387,-0.48742 -0.31853,-0.0841 -0.974946,-0.16216 -0.974946,-0.16216 0,0 0.611356,-0.087 0.915194,-0.0543 0.393906,0.0424 0.776434,0.17416 1.14424,0.32135 0.427014,0.17086 0.823229,0.41212 1.219087,0.64629 0.285842,0.16909 0.57044,0.34324 0.832912,0.54672 0.277714,0.21531 0.481461,0.52374 0.779847,0.70934 0.363404,0.22605 0.693226,0.37485 1.19476,0.47005 0.290578,0.0552 0.589766,0.0553 0.885548,0.0563 0.333835,10e-4 0.666698,-0.0362 0.999879,-0.0573 0.249873,-0.0158 0.499038,-0.059 0.749315,-0.0519 0.304577,0.009 0.60725,0.0593 0.906865,0.1148 0.1897,0.0351 0.562095,0.13772 0.562095,0.13772 0,0 -0.678963,-0.0595 -1.018374,-0.0439 -0.304087,0.014 -0.613338,0.0356 -0.90492,0.12306 -0.354204,0.10629 -0.690146,0.2786 -0.999989,0.4805 -0.307478,0.20036 -0.565268,0.4686 -0.837018,0.71524 -0.174022,0.15793 -0.276423,0.44745 -0.50767,0.48919 z"
         id="path3-9-9-5-3-5"
         sodipodi:nodetypes="sssssssscsssssssssscsssss" /><path
         style="fill:#7c2d12;fill-opacity:1;stroke:none;stroke-width:0.0423298px;stroke-linecap:butt;stroke-linejoin:miter;stroke-opacity:1"
         d="m 68.22639,121.40803 c 0,0 0.242533,-1.00597 0.425879,-1.48832 0.2122,-0.55828 0.509794,-1.08035 0.775771,-1.61511 0.217031,-0.43636 0.412906,-0.88539 0.66905,-1.30001 0.313826,-0.50799 0.656141,-1.00379 1.0575,-1.44588 0.180652,-0.19899 0.388406,-0.3732 0.60188,-0.53647 0.113653,-0.0869 0.34265,-0.0924 0.359559,-0.23444 0.04706,-0.39513 -0.421198,-0.85852 -0.818993,-0.86851 -0.130332,-0.003 -0.195661,0.17327 -0.282252,0.27072 -0.120475,0.13558 -0.22711,0.28344 -0.327864,0.43426 -0.179334,0.26843 -0.323384,0.55887 -0.490659,0.83498 -0.23095,0.38123 -0.494184,0.74326 -0.708147,1.13428 -0.221733,0.40523 -0.401934,0.83191 -0.594343,1.25185 -0.185683,0.40527 -0.370826,0.81102 -0.540414,1.22328 -0.117871,0.28652 -0.226954,0.57669 -0.33137,0.86838 -0.07727,0.21587 -0.161037,0.43027 -0.218341,0.65228 -0.06514,0.25241 -0.183224,0.69169 -0.183224,0.69169 0,0 0.200153,-0.0489 0.313715,-0.0316 0.109571,0.0168 0.292253,0.15863 0.292253,0.15863 z"
         id="path4-3-7-3-4-7-7-3-3"
         sodipodi:nodetypes="cssssssssssssssscsc" /><path
         style="fill:#ffe9cc;fill-opacity:1;stroke:#c2410c;stroke-width:0.0200372px;stroke-linecap:butt;stroke-linejoin:miter;stroke-opacity:1"
         d="m 70.278534,129.68542 c 0.262332,-0.40683 0.491673,-0.84518 0.626708,-1.31004 0.10853,-0.37382 0.227241,-0.7804 0.138791,-1.15952 -0.09259,-0.39717 -0.375956,-0.74021 -0.667631,-1.02526 -0.312728,-0.30562 -0.732189,-0.47986 -1.11544,-0.69038 -0.406731,-0.22342 -0.979768,-0.35663 -1.253331,-0.60605 -0.273569,-0.24941 -0.298853,-0.44182 -0.428179,-0.70993 -0.129319,-0.2681 -0.222497,-0.64923 -0.240353,-0.77378 -0.01781,-0.12456 -0.418155,0.28867 -0.558277,0.39632 -0.140137,0.10764 -0.139024,0.14114 -0.288898,0.23986 -0.149804,0.0987 -0.371033,0.25758 -0.624157,0.31905 -0.253124,0.0615 -0.574803,0.0143 -0.861905,0.003 -0.336821,-0.0127 -0.673581,-0.12254 -1.007983,-0.0802 -0.318615,0.0403 -0.634073,0.15068 -0.911173,0.313 -0.331502,0.19419 -0.591991,0.49217 -0.859727,0.76771 -0.304274,0.3131 -0.651525,0.60969 -0.844049,1.00154 -0.230399,0.46894 -0.387443,1.01253 -0.331494,1.53201 0.03966,0.36794 0.195371,0.69538 0.37321,1.01992 0.149353,0.27257 0.314929,0.44539 0.52447,0.69205 0.221167,0.26033 0.506736,0.48365 0.766767,0.70515 0.363528,0.30962 0.744213,0.60126 1.184766,0.93247 0.281604,0.2117 0.604426,0.59805 1.069703,0.7388 0.235369,0.0712 1.095656,-0.004 1.337588,-0.0481 0.565345,-0.10299 1.492742,-0.31007 1.744404,-0.36513 0.398462,-0.0872 0.750403,-0.2877 1.079191,-0.52911 0.478778,-0.35153 0.825033,-0.86454 1.14693,-1.36372 z"
         id="path5-7-2-3-2-6-5"
         sodipodi:nodetypes="ssssszzzzzzsssssssssssssss" /><path
         style="fill:#ffe0b8;fill-opacity:1;stroke:#431407;stroke-width:0.0179758px;stroke-linecap:butt;stroke-linejoin:miter;stroke-opacity:1"
         d="m 67.318855,130.62509 c 0.383982,-0.1106 0.570377,-0.56588 0.799531,-0.89325 0.155513,-0.22222 0.297423,-0.46039 0.383921,-0.71747 0.108172,-0.32146 0.184389,-0.66659 0.160427,-1.0048 -0.02419,-0.33377 -0.161664,-0.65319 -0.298861,-0.95842 -0.118268,-0.26313 -0.303426,-0.49087 -0.446861,-0.74117 -0.114115,-0.19917 -0.28039,-0.54718 -0.353052,-0.60128 -0.05794,-0.0431 -0.152674,-0.0181 -0.216011,0.0165 -0.13495,0.0738 -0.200084,0.23561 -0.277669,0.36837 -0.167037,0.28575 -0.283524,0.59915 -0.397483,0.90989 -0.175966,0.48002 -0.345477,0.96685 -0.440195,1.46927 -0.05708,0.3062 -0.104456,0.62113 -0.07606,0.93132 0.02294,0.25068 0.05148,0.52353 0.196848,0.72904 0.124777,0.17645 0.338478,0.27551 0.533864,0.36787 0.135509,0.064 0.288159,0.16568 0.432201,0.12419 z"
         id="path6-8-6-91-0-6"
         sodipodi:nodetypes="sssssssssssssss" /><path
         style="fill:#ffe9cc;fill-opacity:1;stroke:#9a3412;stroke-width:0.0120193px;stroke-linecap:butt;stroke-linejoin:miter;stroke-opacity:1"
         d="m 67.354078,129.84512 c 0.261591,-0.0762 0.387719,-0.38694 0.543273,-0.61057 0.105588,-0.1518 0.201813,-0.31445 0.260244,-0.48987 0.07307,-0.21934 0.124298,-0.45476 0.106897,-0.68529 -0.01718,-0.22746 -0.111619,-0.4449 -0.205812,-0.65266 -0.0812,-0.17911 -0.207941,-0.33395 -0.306271,-0.50426 -0.07824,-0.13552 -0.192353,-0.37238 -0.242011,-0.4091 -0.03959,-0.0293 -0.104141,-0.012 -0.147258,0.0117 -0.09182,0.0506 -0.135926,0.16103 -0.188547,0.25168 -0.113255,0.19513 -0.19205,0.409 -0.269087,0.62106 -0.119,0.32756 -0.233512,0.65976 -0.297022,1.00243 -0.03868,0.20876 -0.06991,0.4236 -0.04992,0.63497 0.01615,0.17082 0.03623,0.35675 0.135764,0.49652 0.08546,0.12001 0.231384,0.18708 0.364802,0.24961 0.09254,0.0434 0.196835,0.11234 0.294963,0.0838 z"
         id="path6-8-6-9-1-2"
         sodipodi:nodetypes="sssssssssssssss" /><path
         style="fill:#7c2d12;fill-opacity:1;stroke:none;stroke-width:0.0120193px;stroke-linecap:butt;stroke-linejoin:miter;stroke-opacity:1"
         d="m 67.227994,129.10311 c -0.123463,-0.0979 -0.167314,-0.27002 -0.219403,-0.41874 -0.04904,-0.13998 -0.0751,-0.28882 -0.08454,-0.43683 -0.0085,-0.13375 0.0043,-0.26894 0.02565,-0.40124 0.02351,-0.14589 0.06681,-0.28829 0.112532,-0.42881 0.03373,-0.10366 0.06487,-0.21 0.119059,-0.30459 0.0422,-0.0737 0.09819,-0.13949 0.157716,-0.20005 0.04087,-0.0416 0.07808,-0.10026 0.135455,-0.11063 0.03749,-0.007 0.07962,0.0115 0.108217,0.0367 0.02837,0.025 0.04023,0.0653 0.04976,0.10186 0.01463,0.0561 0.02204,0.1085 0.04304,0.16255 0.02346,0.0604 0.05184,0.10901 0.0897,0.16162 0.06051,0.0841 0.117451,0.17129 0.165518,0.26306 0.04343,0.0829 0.07833,0.17025 0.110195,0.25825 0.02957,0.0817 0.0673,0.16304 0.07489,0.24955 0.01419,0.16172 0.01008,0.2395 -0.0064,0.35793 -0.01754,0.12566 -0.05159,0.25457 -0.09692,0.37308 -0.03508,0.0917 -0.08628,0.17918 -0.151041,0.25304 -0.04763,0.0544 -0.101648,0.11107 -0.17001,0.13452 -0.08648,0.0297 -0.183606,0.01 -0.274239,-0.002 -0.06455,-0.009 -0.138109,-0.008 -0.189117,-0.049 z"
         id="path12-1-4-1-2-2-9"
         sodipodi:nodetypes="sssssssssssssssssssss" /><path
         style="fill:#ffe9cc;fill-opacity:1;stroke:none;stroke-width:0.00832579px;stroke-linecap:butt;stroke-linejoin:miter;stroke-opacity:1"
         d="m 67.760366,128.73077 c 0.06104,-0.0368 0.06472,-0.12781 0.08506,-0.19608 0.02669,-0.0895 0.04316,-0.18292 0.04741,-0.27624 0.0023,-0.052 -0.0045,-0.10437 -0.01241,-0.15588 -0.0086,-0.0556 -0.01675,-0.11226 -0.03785,-0.16436 -0.02165,-0.0535 -0.05423,-0.10246 -0.08947,-0.14814 -0.02346,-0.0304 -0.04186,-0.0825 -0.08027,-0.0827 -0.03772,-1e-4 -0.06108,0.0477 -0.07928,0.0808 -0.03883,0.0705 -0.03916,0.15623 -0.05519,0.23513 -0.01441,0.0709 -0.03697,0.14154 -0.03672,0.21389 1.53e-4,0.0634 0.01688,0.12618 0.03339,0.18748 0.01704,0.0633 0.03578,0.12732 0.06736,0.18478 0.02348,0.0427 0.04627,0.0927 0.08916,0.11596 0.02026,0.011 0.04917,0.0173 0.0689,0.005 z"
         id="path13-0-2-2-7-1"
         sodipodi:nodetypes="ssssssssssssss" /><path
         style="fill:#ffe0b8;fill-opacity:1;stroke:#431407;stroke-width:0.0181427px;stroke-linecap:butt;stroke-linejoin:miter;stroke-opacity:1"
         d="m 63.554518,129.62097 c -0.256352,-0.31137 -0.15139,-0.79668 -0.155123,-1.19998 -0.0023,-0.27374 0.01555,-0.55297 0.09037,-0.81629 0.09357,-0.32929 0.227326,-0.65999 0.440895,-0.92751 0.210746,-0.26394 0.507593,-0.45119 0.796094,-0.62682 0.248707,-0.1514 0.532853,-0.23514 0.795169,-0.3615 0.208732,-0.10054 0.545848,-0.29516 0.637206,-0.29866 0.07279,-0.003 0.137392,0.0721 0.170314,0.13715 0.07,0.13846 0.03181,0.31033 0.02069,0.46514 -0.02434,0.33316 -0.106259,0.66051 -0.18893,0.98417 -0.127701,0.49996 -0.264766,1.00186 -0.472899,1.47403 -0.126752,0.28766 -0.267837,0.57652 -0.46859,0.81844 -0.162278,0.1955 -0.341861,0.40623 -0.580185,0.49421 -0.204617,0.0755 -0.439013,0.0359 -0.654355,0.001 -0.149352,-0.0241 -0.334403,-0.0267 -0.430567,-0.14351 z"
         id="path6-8-7-3-3-2-7"
         sodipodi:nodetypes="sssssssssssssss" /><path
         style="fill:#ffe9cc;fill-opacity:1;stroke:#9a3412;stroke-width:0.0120193px;stroke-linecap:butt;stroke-linejoin:miter;stroke-opacity:1"
         d="m 64.006732,129.04559 c -0.1903,-0.195 -0.147319,-0.52758 -0.172788,-0.79881 -0.01729,-0.1841 -0.02109,-0.37304 0.01429,-0.55452 0.04425,-0.22692 0.115406,-0.45709 0.243925,-0.64927 0.126812,-0.18961 0.31597,-0.33249 0.500157,-0.46707 0.158783,-0.11602 0.345281,-0.18852 0.514652,-0.28846 0.13477,-0.0795 0.35061,-0.22965 0.411904,-0.2372 0.04886,-0.006 0.09657,0.0408 0.122455,0.0826 0.05507,0.0892 0.03917,0.20706 0.0404,0.31188 0.0026,0.2256 -0.03391,0.45057 -0.07111,0.67309 -0.05747,0.34374 -0.121124,0.68932 -0.234331,1.01891 -0.06898,0.2008 -0.147443,0.40322 -0.268787,0.57745 -0.09806,0.14079 -0.206978,0.2928 -0.36238,0.36556 -0.133429,0.0625 -0.293469,0.0491 -0.440394,0.0379 -0.101908,-0.008 -0.226627,7.5e-4 -0.298011,-0.0721 z"
         id="path6-8-6-9-1-6-0"
         sodipodi:nodetypes="sssssssssssssss" /><path
         style="fill:#7c2d12;fill-opacity:1;stroke:none;stroke-width:0.0120193px;stroke-linecap:butt;stroke-linejoin:miter;stroke-opacity:1"
         d="m 64.481406,128.46151 c 0.155669,-0.0246 0.278471,-0.15284 0.396958,-0.25671 0.111534,-0.0978 0.207425,-0.21455 0.288428,-0.33879 0.0732,-0.11226 0.12854,-0.23626 0.174983,-0.36198 0.05126,-0.13859 0.0836,-0.28387 0.112885,-0.42871 0.02161,-0.10685 0.04678,-0.21476 0.04612,-0.32377 -5.12e-4,-0.0849 -0.0169,-0.16974 -0.03895,-0.25175 -0.01514,-0.0563 -0.01868,-0.12569 -0.06354,-0.16294 -0.02932,-0.0243 -0.07501,-0.0291 -0.112289,-0.0212 -0.03698,0.008 -0.06714,0.0371 -0.09342,0.0642 -0.04033,0.0417 -0.07255,0.0836 -0.117414,0.12037 -0.05014,0.0411 -0.09875,0.0694 -0.157582,0.0966 -0.09404,0.0435 -0.186501,0.0914 -0.273486,0.14766 -0.07859,0.0508 -0.151923,0.10972 -0.222945,0.17068 -0.0659,0.0566 -0.138773,0.10886 -0.187931,0.18046 -0.09188,0.13384 -0.126554,0.20358 -0.170376,0.31484 -0.04652,0.11803 -0.08027,0.24703 -0.09908,0.37251 -0.01457,0.0971 -0.01299,0.19845 0.007,0.29461 0.01476,0.0707 0.03389,0.1467 0.08188,0.20073 0.06071,0.0684 0.155158,0.0986 0.239944,0.13282 0.0604,0.0243 0.124429,0.0605 0.188739,0.0504 z"
         id="path12-1-4-1-2-2-1-9"
         sodipodi:nodetypes="sssssssssssssssssssss" /><path
         style="fill:#ffe9cc;fill-opacity:1;stroke:none;stroke-width:0.00832579px;stroke-linecap:butt;stroke-linejoin:miter;stroke-opacity:1"
         d="m 64.200958,127.87549 c -0.03508,-0.062 0.0065,-0.14311 0.02236,-0.21256 0.02079,-0.0911 0.05237,-0.18049 0.09456,-0.26384 0.02355,-0.0465 0.05522,-0.0887 0.08747,-0.12963 0.03478,-0.0442 0.06978,-0.0895 0.113787,-0.1245 0.04515,-0.0359 0.0976,-0.0625 0.150749,-0.085 0.03538,-0.0149 0.07704,-0.0513 0.110536,-0.0325 0.03289,0.0185 0.02972,0.0716 0.02931,0.10932 -9e-4,0.0805 -0.04273,0.1553 -0.06757,0.23188 -0.02232,0.0688 -0.03741,0.14143 -0.07321,0.20429 -0.03135,0.0552 -0.07675,0.10157 -0.121266,0.14683 -0.04596,0.0467 -0.09377,0.0933 -0.149518,0.12777 -0.04147,0.0256 -0.08589,0.058 -0.134659,0.0571 -0.02303,-4.2e-4 -0.05129,-0.009 -0.06262,-0.0292 z"
         id="path13-0-2-2-7-8-3"
         sodipodi:nodetypes="ssssssssssssss" /><path
         style="fill:#ea580c;fill-opacity:1;stroke:#7c2d12;stroke-width:0.0298887px;stroke-linecap:butt;stroke-linejoin:miter;stroke-opacity:1"
         d="m 64.734322,135.46705 c 0.05187,0.25181 0.243037,0.45597 0.400571,0.65918 0.07334,0.0945 0.143582,0.20337 0.250542,0.25693 0.248107,0.12424 0.577236,-0.016 0.825328,0.10831 0.272583,0.13654 0.402764,0.4615 0.638397,0.65498 0.230104,0.18894 0.47237,0.37632 0.748747,0.48707 0.294242,0.11791 0.934661,0.17546 0.934661,0.17546 0,0 -0.884639,0.0286 -1.324437,-0.01 -0.440779,-0.0386 -0.884871,-0.0945 -1.308851,-0.22109 -0.304189,-0.0908 -0.598126,-0.22223 -0.872333,-0.38222 -0.298302,-0.17406 -0.517905,-0.47152 -0.828947,-0.62163 -0.256964,-0.12402 -0.547209,-0.16662 -0.828112,-0.21662 -0.329922,-0.0588 -0.670424,-0.0399 -1.000658,-0.0968 -0.313629,-0.0541 -0.623565,-0.13322 -0.92626,-0.23153 -0.32357,-0.10509 -0.641703,-0.23071 -0.946646,-0.38156 -0.282086,-0.13955 -0.551284,-0.30552 -0.811975,-0.48188 -0.17837,-0.12068 -0.346761,-0.25593 -0.512811,-0.39308 -0.148824,-0.12293 -0.432784,-0.38474 -0.432784,-0.38474 0,0 0.550841,0.267 0.827887,0.39713 0.215078,0.10102 0.42374,0.21836 0.647699,0.29781 0.263101,0.0933 0.534043,0.17554 0.811361,0.20786 0.331089,0.0386 0.672818,-0.0835 0.999794,-0.0187 0.164145,0.0325 0.2954,0.22768 0.460432,0.2 0.392327,-0.0658 0.671169,-0.46777 0.879496,-0.80666 0.12879,-0.20934 0.463022,-0.79494 0.535194,-0.9478 0.07816,-0.16565 0.483227,-0.84072 0.568605,-0.65473 0.08672,0.18903 0.129147,0.87821 0.129972,1.18561 7.5e-4,0.43082 0.0907,1.00287 0.135128,1.21856 z"
         id="path4-0-3-7-62-6-6"
         sodipodi:nodetypes="sssssscsssssssssscssssssssss" /></g></g></svg>
