<?xml version="1.0" encoding="utf-8"?>
<svg xmlns="http://www.w3.org/2000/svg" width="250" height="250" class="segno"><g transform="scale(10)"><path fill="#fffbeb" d="M0 0h25v25h-25z"/><path class="qrline" stroke="#431407" d="M2 2.5h7m1 0h2m2 0h1m1 0h7m-21 1h1m5 0h1m4 0h1m2 0h1m5 0h1m-21 1h1m1 0h3m1 0h1m1 0h1m1 0h2m2 0h1m1 0h3m1 0h1m-21 1h1m1 0h3m1 0h1m1 0h2m4 0h1m1 0h3m1 0h1m-21 1h1m1 0h3m1 0h1m1 0h5m1 0h1m1 0h3m1 0h1m-21 1h1m5 0h1m4 0h1m2 0h1m5 0h1m-21 1h7m1 0h1m1 0h1m1 0h1m1 0h7m-12 1h2m1 0h1m-13 1h4m2 0h1m1 0h1m1 0h1m2 0h1m2 0h3m1 0h1m-16 1h1m1 0h1m1 0h3m1 0h8m-21 1h3m2 0h2m1 0h1m1 0h1m2 0h1m3 0h1m1 0h2m-21 1h1m1 0h3m3 0h2m2 0h1m2 0h1m1 0h1m1 0h1m-20 1h1m4 0h4m2 0h1m2 0h1m1 0h2m2 0h1m-13 1h7m1 0h1m-17 1h7m3 0h1m3 0h1m1 0h1m-17 1h1m5 0h1m3 0h4m1 0h6m-21 1h1m1 0h3m1 0h1m3 0h2m4 0h1m1 0h2m-20 1h1m1 0h3m1 0h1m1 0h1m1 0h1m1 0h2m1 0h1m3 0h1m-20 1h1m1 0h3m1 0h1m1 0h1m1 0h4m1 0h1m2 0h1m-19 1h1m5 0h1m1 0h2m3 0h4m3 0h1m-21 1h7m1 0h1m1 0h1m1 0h3m1 0h3"/></g></svg>
