<?xml version="1.0" encoding="UTF-8" standalone="no"?>
<!-- Created with Inkscape (http://www.inkscape.org/) -->

<svg
   width="25.750139mm"
   height="21.281412mm"
   viewBox="0 0 25.750139 21.281413"
   version="1.1"
   id="svg5"
   inkscape:version="1.3.2 (091e20ef0f, 2023-11-25, custom)"
   sodipodi:docname="jabkis.svg"
   xml:space="preserve"
   inkscape:export-filename="logo-xs.png"
   inkscape:export-xdpi="27.093334"
   inkscape:export-ydpi="27.093334"
   xmlns:inkscape="http://www.inkscape.org/namespaces/inkscape"
   xmlns:sodipodi="http://sodipodi.sourceforge.net/DTD/sodipodi-0.dtd"
   xmlns="http://www.w3.org/2000/svg"
   xmlns:svg="http://www.w3.org/2000/svg"><sodipodi:namedview
     id="namedview7"
     pagecolor="#fefefe"
     bordercolor="#eeeeee"
     borderopacity="1"
     inkscape:showpageshadow="0"
     inkscape:pageopacity="0"
     inkscape:pagecheckerboard="0"
     inkscape:deskcolor="#fcfcfc"
     inkscape:document-units="mm"
     showgrid="false"
     inkscape:zoom="5.0652435"
     inkscape:cx="48.763697"
     inkscape:cy="40.175759"
     inkscape:window-width="1900"
     inkscape:window-height="1036"
     inkscape:window-x="10"
     inkscape:window-y="10"
     inkscape:window-maximized="1"
     inkscape:current-layer="layer1"
     showguides="true" /><defs
     id="defs2"><inkscape:path-effect
       effect="bspline"
       id="path-effect95870"
       is_visible="true"
       lpeversion="1"
       weight="33.333333"
       steps="2"
       helper_size="0"
       apply_no_weight="true"
       apply_with_weight="true"
       only_selected="false"
       uniform="false" /><inkscape:path-effect
       effect="bspline"
       id="path-effect95140"
       is_visible="true"
       lpeversion="1"
       weight="33.333333"
       steps="2"
       helper_size="0"
       apply_no_weight="true"
       apply_with_weight="true"
       only_selected="false"
       uniform="false" /><inkscape:path-effect
       effect="bspline"
       id="path-effect95136"
       is_visible="true"
       lpeversion="1"
       weight="33.333333"
       steps="2"
       helper_size="0"
       apply_no_weight="true"
       apply_with_weight="true"
       only_selected="false"
       uniform="false" /><inkscape:path-effect
       effect="bspline"
       id="path-effect95136-6"
       is_visible="true"
       lpeversion="1"
       weight="33.333333"
       steps="2"
       helper_size="0"
       apply_no_weight="true"
       apply_with_weight="true"
       only_selected="false"
       uniform="false" /><clipPath
       clipPathUnits="userSpaceOnUse"
       id="clipPath392"><rect
         style="opacity:0.639959;fill:#f9b1cf;fill-opacity:0.639216;stroke-width:1"
         id="rect394"
         width="222.49139"
         height="153.5433"
         x="-96.254814"
         y="-0.085285775" /></clipPath><inkscape:path-effect
       effect="powerstroke"
       id="path-effect18-0-8-9"
       is_visible="true"
       lpeversion="1.3"
       scale_width="1"
       interpolator_type="CubicBezierJohan"
       interpolator_beta="0.2"
       start_linecap_type="zerowidth"
       end_linecap_type="zerowidth"
       offset_points="0.00014032479,0.5"
       linejoin_type="extrp_arc"
       miter_limit="4"
       not_jump="false"
       sort_points="true"
       message="stroke-width:2;stroke-opacity:0.2;fill:#6e6e6f;stroke:#919190" /></defs><g
     inkscape:label="Layer 1"
     inkscape:groupmode="layer"
     id="layer1"
     transform="translate(-46.548941,-91.654894)"><g
       id="g3"><g
         id="g2"><path
           style="fill:#fb923c;fill-opacity:1;stroke:#9a3412;stroke-width:0.0212573px;stroke-linecap:butt;stroke-linejoin:miter;stroke-opacity:1"
           d="m 48.668427,94.122421 c -0.631702,0.640574 -1.073408,1.470289 -1.395002,2.310504 -0.451391,1.179333 -0.761998,2.460011 -0.707699,3.721615 0.06209,1.44313 0.512636,2.88679 1.17231,4.17182 0.532109,1.03655 1.606203,2.37726 2.661041,2.87212 1.031425,0.48387 1.368981,0.71159 2.404271,0.84253 0.73795,0.0933 1.825407,0.13889 2.545173,-0.0488 0.453383,-0.11821 0.712449,-0.4736 1.172424,-0.56277 0.499571,-0.0968 1.126046,0.0369 1.631069,-0.0255 0.925351,-0.11446 1.643094,-0.34443 2.43058,-0.84367 0.882522,-0.5595 1.756535,-1.383 2.371618,-2.22772 0.560816,-0.77018 1.061153,-1.61266 1.344183,-2.52238 0.284897,-0.91572 0.360654,-1.9001 0.326222,-2.858499 -0.02715,-0.754356 -0.329016,-1.502342 -0.577407,-2.215149 -0.29287,-0.840452 -0.55136,-1.660442 -1.085356,-2.372473 -0.59742,-0.796618 -1.293124,-1.56451 -2.146592,-2.077451 -0.575237,-0.345716 -1.244324,-0.611389 -1.915384,-0.620494 -0.844621,-0.01146 -1.656596,0.378027 -2.431043,0.715278 -0.502892,0.218998 -0.887553,0.690095 -1.415369,0.839331 -0.425306,0.120251 -0.885121,0.05522 -1.325776,0.021 -0.572732,-0.04447 -1.123831,-0.29453 -1.698285,-0.292963 -0.700298,0.0019 -1.414602,0.117353 -2.068341,0.368436 -0.473897,0.182013 -0.936188,0.443805 -1.292637,0.80526 z"
           id="path2-1-8-0"
           sodipodi:nodetypes="sssssssssssssssssssssss" /><path
           style="fill:#ea580c;fill-opacity:1;stroke:#c2410c;stroke-width:0.0212573px;stroke-linecap:butt;stroke-linejoin:miter;stroke-opacity:1"
           d="m 54.372013,94.890035 c 0.167238,0.05341 0.333548,-0.113774 0.506282,-0.145136 0.191408,-0.03475 0.425771,0.06959 0.581744,-0.04668 0.264016,-0.196799 0.222473,-0.620559 0.357004,-0.921119 0.120195,-0.268533 0.21666,-0.557048 0.401267,-0.786125 0.176776,-0.219361 0.413917,-0.387906 0.653908,-0.535462 0.259072,-0.159288 0.545611,-0.273705 0.834414,-0.369014 0.364095,-0.120155 0.741925,-0.203449 1.122205,-0.252288 0.265622,-0.03411 0.802931,-0.02755 0.802931,-0.02755 0,0 -0.483531,-0.134794 -0.731889,-0.140568 -0.321949,-0.0074 -0.644194,0.05823 -0.956214,0.137929 -0.362238,0.09253 -0.70709,0.245056 -1.050917,0.391899 -0.248266,0.106039 -0.49607,0.216283 -0.729138,0.352511 -0.246609,0.144141 -0.443459,0.371167 -0.703583,0.489183 -0.316802,0.14373 -0.598368,0.228764 -1.012658,0.252428 -0.240041,0.01373 -0.481193,-0.01779 -0.719678,-0.04833 -0.269172,-0.03448 -0.533515,-0.0997 -0.799811,-0.151947 -0.199715,-0.03919 -0.395969,-0.100369 -0.598429,-0.121126 -0.246397,-0.02525 -0.495712,-0.01643 -0.743058,-0.0034 -0.156594,0.0082 -0.467598,0.05152 -0.467598,0.05152 0,0 0.553518,0.02385 0.825419,0.07237 0.243606,0.04346 0.490575,0.09355 0.716314,0.194915 0.274237,0.123145 0.526769,0.297558 0.755132,0.493061 0.226619,0.194008 0.406011,0.437466 0.598946,0.664997 0.123545,0.145698 0.175435,0.389862 0.357408,0.447972 z"
           id="path3-9-9-23"
           sodipodi:nodetypes="sssssssscsssssssssscsssss" /><path
           style="fill:#fba056;fill-opacity:1;stroke:#c2410c;stroke-width:0.0142507px;stroke-linecap:butt;stroke-linejoin:miter;stroke-opacity:1"
           d="m 52.168929,101.28507 c -0.168394,-0.35563 -0.306862,-0.73318 -0.366512,-1.12213 -0.04796,-0.312756 -0.100572,-0.652999 0.01076,-0.949183 0.116638,-0.31031 0.381321,-0.556801 0.64655,-0.755671 0.284385,-0.213233 0.640891,-0.309279 0.972055,-0.438401 0.351448,-0.137035 0.827382,-0.183767 1.074261,-0.35584 0.246877,-0.172073 0.28761,-0.32447 0.420202,-0.526865 0.132591,-0.202394 0.248016,-0.499705 0.275585,-0.598201 0.02757,-0.0985 0.306483,0.276895 0.408018,0.37848 0.101539,0.101582 0.09718,0.128463 0.207469,0.223883 0.110292,0.09542 0.271793,0.246847 0.469298,0.323171 0.197506,0.07633 0.461767,0.0723 0.694305,0.09393 0.272811,0.02539 0.55585,-0.0275 0.820894,0.04198 0.252527,0.06617 0.495102,0.188524 0.701256,0.348663 0.246643,0.191581 0.425049,0.45929 0.611697,0.709687 0.212098,0.284535 0.460594,0.56031 0.574307,0.896489 0.136083,0.40232 0.205154,0.857038 0.105091,1.269788 -0.07087,0.29235 -0.231023,0.53978 -0.408685,0.78252 -0.149215,0.20387 -0.300953,0.32564 -0.49593,0.50226 -0.205793,0.18641 -0.459571,0.33619 -0.69259,0.48719 -0.325741,0.21109 -0.663417,0.40585 -1.053529,0.62618 -0.249354,0.14083 -0.550423,0.41805 -0.940313,0.48226 -0.197233,0.0325 -0.882632,-0.11921 -1.072948,-0.18033 -0.444759,-0.14283 -1.1703,-0.40783 -1.367309,-0.47883 -0.311931,-0.11242 -0.574362,-0.31127 -0.813817,-0.54062 -0.348681,-0.33396 -0.573484,-0.78405 -0.780106,-1.22042 z"
           id="path5-7-2-3-5"
           sodipodi:nodetypes="ssssszzzzzzsssssssssssssss" /><path
           style="fill:#fcb174;fill-opacity:1;stroke:#c2410c;stroke-width:0.0127846px;stroke-linecap:butt;stroke-linejoin:miter;stroke-opacity:1"
           d="m 54.454925,102.35553 c -0.297783,-0.12977 -0.399847,-0.51642 -0.549903,-0.80451 -0.101859,-0.19554 -0.190999,-0.40251 -0.233515,-0.61886 -0.05316,-0.27052 -0.07807,-0.55674 -0.02257,-0.82679 0.05478,-0.266452 0.199398,-0.50934 0.342261,-0.740826 0.12316,-0.199557 0.296488,-0.363511 0.438569,-0.550068 0.113055,-0.148445 0.28388,-0.411334 0.348162,-0.447244 0.05125,-0.02862 0.124962,0.0016 0.172356,0.03618 0.100912,0.07376 0.136332,0.211062 0.184819,0.326266 0.104358,0.24797 0.165128,0.512881 0.224093,0.775376 0.09108,0.405484 0.176159,0.815786 0.19934,1.230726 0.0141,0.25279 0.01848,0.51165 -0.03718,0.75864 -0.04497,0.19961 -0.09689,0.41649 -0.235772,0.56674 -0.119244,0.129 -0.301957,0.18623 -0.469199,0.24 -0.116001,0.0373 -0.249775,0.10305 -0.361479,0.0544 z"
           id="path6-8-6-9"
           sodipodi:nodetypes="sssssssssssssss" /><path
           style="fill:#c2410c;fill-opacity:1;stroke:none;stroke-width:0.0127846px;stroke-linecap:butt;stroke-linejoin:miter;stroke-opacity:1"
           d="m 54.716447,101.49694 c 0.160835,-0.0972 0.238762,-0.29405 0.32289,-0.46207 0.07919,-0.15814 0.13257,-0.33025 0.166155,-0.5039 0.03035,-0.15691 0.03571,-0.31876 0.03046,-0.47849 -0.0057,-0.176129 -0.03531,-0.351119 -0.0681,-0.524263 -0.02418,-0.127724 -0.0449,-0.258221 -0.09464,-0.378324 -0.03874,-0.09355 -0.09498,-0.179864 -0.156189,-0.260514 -0.04203,-0.05536 -0.07714,-0.130423 -0.143411,-0.151381 -0.0433,-0.01369 -0.0959,0.0016 -0.133531,0.02705 -0.03732,0.02524 -0.05747,0.07114 -0.07428,0.112949 -0.02579,0.06416 -0.0425,0.125 -0.07552,0.185754 -0.0369,0.06791 -0.07783,0.121091 -0.13056,0.177585 -0.0843,0.09031 -0.164838,0.184819 -0.235583,0.286093 -0.06392,0.0915 -0.118417,0.189515 -0.169434,0.288778 -0.04733,0.09211 -0.104283,0.182653 -0.126372,0.283833 -0.04128,0.18915 -0.04821,0.28178 -0.04658,0.42436 0.0017,0.15129 0.02243,0.30894 0.05808,0.45598 0.02759,0.11384 0.07487,0.22501 0.140263,0.3222 0.04809,0.0715 0.103369,0.14677 0.180654,0.18486 0.09776,0.0482 0.215661,0.0391 0.324643,0.0388 0.07763,-3e-4 0.164599,0.0109 0.231046,-0.0293 z"
           id="path12-1-4-1-2"
           sodipodi:nodetypes="sssssssssssssssssssss" /><path
           style="fill:#fcb174;fill-opacity:1;stroke:none;stroke-width:0.00885597px;stroke-linecap:butt;stroke-linejoin:miter;stroke-opacity:1"
           d="m 54.143337,100.97587 c -0.06662,-0.0527 -0.05716,-0.16097 -0.07087,-0.24482 -0.01799,-0.10995 -0.02332,-0.22289 -0.01421,-0.33392 0.0051,-0.062 0.02111,-0.12278 0.0383,-0.18251 0.01854,-0.0644 0.03681,-0.13024 0.06966,-0.18868 0.03371,-0.05996 0.07965,-0.112981 0.12824,-0.161672 0.03235,-0.03242 0.062,-0.0913 0.107439,-0.08561 0.04463,0.0056 0.065,0.0657 0.08151,0.107552 0.03524,0.08931 0.02264,0.19074 0.02963,0.28649 0.0063,0.086 0.02227,0.17302 0.01101,0.25855 -0.0098,0.075 -0.03908,0.1467 -0.06788,0.21671 -0.02974,0.0723 -0.06161,0.14518 -0.107648,0.20836 -0.03425,0.047 -0.06877,0.10269 -0.122997,0.12367 -0.02561,0.01 -0.06076,0.0129 -0.08229,-0.004 z"
           id="path13-0-2-2"
           sodipodi:nodetypes="ssssssssssssss" /><path
           style="fill:#fcb174;fill-opacity:1;stroke:#c2410c;stroke-width:0.0129033px;stroke-linecap:butt;stroke-linejoin:miter;stroke-opacity:1"
           d="m 57.595089,101.94452 c 0.239552,-0.22382 0.206324,-0.62606 0.251973,-0.95071 0.03099,-0.22036 0.04603,-0.4473 0.01356,-0.66745 -0.04061,-0.27528 -0.113385,-0.555968 -0.257224,-0.794167 -0.141921,-0.23502 -0.361374,-0.41734 -0.575312,-0.589406 -0.184428,-0.148335 -0.404585,-0.245887 -0.602634,-0.375476 -0.157588,-0.103114 -0.408711,-0.295631 -0.48197,-0.308127 -0.05841,-0.01 -0.118361,0.04358 -0.151772,0.09252 -0.07114,0.104188 -0.05856,0.246744 -0.06585,0.372686 -0.0157,0.27108 0.01576,0.543582 0.04816,0.813176 0.05002,0.416452 0.107383,0.835464 0.225192,1.238024 0.07177,0.24525 0.154885,0.49298 0.291078,0.7092 0.110065,0.17473 0.232555,0.36356 0.415327,0.45968 0.156924,0.0825 0.350035,0.0754 0.52726,0.0702 0.122927,-0.004 0.272354,0.0139 0.362214,-0.0701 z"
           id="path6-8-7-3-9"
           sodipodi:nodetypes="sssssssssssssss" /><path
           style="fill:#c2410c;fill-opacity:1;stroke:none;stroke-width:0.0129033px;stroke-linecap:butt;stroke-linejoin:miter;stroke-opacity:1"
           d="m 57.056896,101.21587 c -0.185756,-0.0382 -0.326258,-0.19927 -0.462924,-0.33075 -0.128637,-0.12376 -0.237437,-0.2695 -0.327918,-0.42338 -0.08175,-0.13905 -0.141413,-0.29121 -0.190269,-0.44494 -0.05388,-0.1695 -0.08476,-0.345929 -0.111922,-0.5217 -0.02004,-0.129661 -0.04431,-0.260789 -0.03748,-0.391812 0.0053,-0.10205 0.02973,-0.203124 0.06078,-0.300484 0.02132,-0.06684 0.02942,-0.150074 0.0854,-0.192351 0.03658,-0.02762 0.09177,-0.03078 0.136149,-0.01927 0.04402,0.01143 0.07866,0.0483 0.108741,0.08241 0.04616,0.05234 0.08256,0.104592 0.134461,0.151259 0.05799,0.05216 0.114857,0.08896 0.184064,0.124936 0.110631,0.0575 0.219114,0.120263 0.32055,0.192764 0.09164,0.0655 0.176535,0.140377 0.258526,0.217615 0.07609,0.07167 0.16078,0.138611 0.215894,0.227427 0.103028,0.166025 0.140839,0.251813 0.187341,0.388007 0.04934,0.144519 0.08279,0.301469 0.09844,0.453369 0.0121,0.1176 0.0046,0.2393 -0.02484,0.35379 -0.02166,0.0842 -0.04887,0.17448 -0.109551,0.23676 -0.07676,0.0788 -0.19197,0.10994 -0.295779,0.14631 -0.07395,0.0259 -0.15292,0.0658 -0.229663,0.05 z"
           id="path12-1-6-1-7"
           sodipodi:nodetypes="sssssssssssssssssssss" /><path
           style="fill:#fcb174;fill-opacity:1;stroke:none;stroke-width:0.00893819px;stroke-linecap:butt;stroke-linejoin:miter;stroke-opacity:1"
           d="m 57.426481,100.52698 c 0.04561,-0.0726 1.44e-4,-0.17241 -0.01509,-0.2568 -0.01995,-0.11065 -0.05295,-0.2199 -0.09908,-0.322446 -0.02574,-0.05723 -0.06146,-0.109683 -0.09795,-0.160716 -0.03936,-0.05504 -0.07891,-0.111497 -0.129868,-0.15602 -0.05227,-0.04569 -0.113859,-0.08063 -0.176492,-0.110577 -0.0417,-0.01993 -0.08976,-0.06597 -0.131065,-0.04523 -0.04058,0.02037 -0.0397,0.08442 -0.0413,0.129796 -0.0035,0.09684 0.04276,0.189084 0.06838,0.282531 0.02302,0.08397 0.03713,0.172112 0.07664,0.249702 0.03466,0.0681 0.08663,0.12639 0.137617,0.18328 0.05266,0.0588 0.107548,0.11735 0.172642,0.16194 0.04842,0.0332 0.10004,0.0745 0.158695,0.0762 0.0277,7.9e-4 0.06216,-0.008 0.07689,-0.0317 z"
           id="path13-0-5-9-3"
           sodipodi:nodetypes="ssssssssssssss" /><path
           style="fill:#ea580c;fill-opacity:1;stroke:#c2410c;stroke-width:0.0212573px;stroke-linecap:butt;stroke-linejoin:miter;stroke-opacity:1"
           d="m 56.025712,106.53132 c -0.06845,0.19747 -0.24412,0.34178 -0.392577,0.48889 -0.06908,0.0684 -0.137243,0.14872 -0.229119,0.18057 -0.213106,0.0739 -0.463546,-0.0739 -0.676642,-3e-5 -0.234143,0.0812 -0.373446,0.32933 -0.583817,0.46033 -0.205454,0.12794 -0.420533,0.25332 -0.655001,0.31334 -0.24963,0.0639 -0.771867,0.0425 -0.771867,0.0425 0,0 0.709952,0.11667 1.068497,0.13214 0.359336,0.0155 0.72318,0.0174 1.078277,-0.0397 0.254781,-0.041 0.50559,-0.11582 0.743515,-0.21575 0.258839,-0.10873 0.467289,-0.32523 0.733862,-0.41331 0.220229,-0.0728 0.458663,-0.0764 0.690361,-0.087 0.272114,-0.0125 0.544543,0.0388 0.816725,0.0279 0.258493,-0.0104 0.516674,-0.0414 0.771031,-0.0886 0.271911,-0.0505 0.541591,-0.11805 0.803327,-0.20736 0.242122,-0.0826 0.47664,-0.18791 0.705409,-0.30247 0.156539,-0.0784 0.306551,-0.16958 0.454901,-0.26255 0.132952,-0.0833 0.389515,-0.26429 0.389515,-0.26429 0,0 -0.472214,0.15691 -0.709262,0.23248 -0.184037,0.0587 -0.364626,0.13116 -0.55353,0.17149 -0.221939,0.0474 -0.448998,0.085 -0.675923,0.0817 -0.270929,-0.004 -0.533445,-0.13846 -0.803829,-0.12085 -0.13573,0.009 -0.262171,0.15225 -0.392244,0.11247 -0.309234,-0.0945 -0.491455,-0.448 -0.623519,-0.74317 -0.08158,-0.18235 -0.289068,-0.68967 -0.331062,-0.8205 -0.04549,-0.14177 -0.30053,-0.7287 -0.389023,-0.58783 -0.08993,0.14316 -0.196993,0.69412 -0.230178,0.94178 -0.0465,0.3471 -0.179199,0.79866 -0.237827,0.9678 z"
           id="path4-0-3-7-6"
           sodipodi:nodetypes="sssssscsssssssssscssssssssss" /></g><g
         id="g1"><path
           id="path1-2-0-1"
           style="display:inline;fill:#ea580c;fill-opacity:1;stroke:#9a3412;stroke-width:0.0305216px;stroke-linecap:butt;stroke-linejoin:miter;stroke-opacity:1"
           d="m 66.545899,102.94887 c 1.648439,0.19766 2.344791,0.64474 3.171155,1.12162 0.561897,0.32427 0.820992,0.447 1.599413,1.15434 0.508264,0.46185 0.862596,1.26868 0.945353,1.7238 0.0619,0.34041 0.0195,0.94308 -0.475651,1.57425 -0.87767,1.11876 -1.77955,2.06692 -2.985629,2.82013 -1.024695,0.63993 -2.180258,1.11681 -3.367631,1.33964 -1.3347,0.25048 -2.549059,0.27593 -4.00785,-0.0557 -1.352705,-0.30755 -2.626087,-1.28625 -3.442919,-2.40749 -0.694852,-0.9538 -1.027275,-2.19014 -1.088799,-3.3686 -0.04772,-0.91401 0.165413,-1.86634 0.641086,-2.64828 0.343816,-0.56517 0.885086,-0.97222 1.46234,-1.29535 0.567305,-0.31757 1.200663,-0.53545 1.842262,-0.64049 0.533643,-0.0874 3.469585,0.41392 5.70687,0.68218 z"
           sodipodi:nodetypes="sssssssssssssss" /><path
           style="display:inline;fill:#fb923c;fill-opacity:1;stroke:#9a3412;stroke-width:0.03;stroke-linecap:butt;stroke-linejoin:miter;stroke-dasharray:none;stroke-opacity:1"
           d="m 60.982592,102.23314 c 2.350908,0.23832 4.050788,0.2588 6.694033,1.09566 0.65584,0.20764 1.129127,0.97435 1.541672,1.52485 0.368384,0.49157 0.714886,1.06143 0.772814,1.67298 0.0852,0.89943 -0.208982,1.84416 -0.6544,2.63018 -0.628361,1.10886 -1.722862,2.23484 -2.939385,2.75873 -1.037495,0.44679 -1.882684,0.86348 -3.010349,0.92975 -0.993072,0.0584 -2.014503,-0.15827 -2.936667,-0.53138 -0.706271,-0.28576 -1.282893,-0.70042 -1.805645,-1.25468 -0.56719,-0.60138 -1.062098,-1.38006 -1.350464,-2.1548 -0.284626,-0.76468 -0.400815,-1.57763 -0.396859,-2.39356 0.003,-0.60828 0.101869,-1.21156 0.343039,-1.76999 0.205077,-0.47485 0.478159,-0.9527 0.866133,-1.29478 0.367024,-0.3236 0.996818,-0.6841 1.448122,-0.87317 0.292743,-0.12264 1.11218,-0.3718 1.427956,-0.33979 z"
           id="path2-6-7"
           sodipodi:nodetypes="sssssssssssssss" /><path
           style="fill:#fba056;fill-opacity:1;stroke:none;stroke-width:0.0185952;stroke-miterlimit:10"
           d="m 63.66253,106.11506 c -0.220968,0.002 -0.436892,-0.0622 -0.606678,-0.181 -0.171143,-0.11973 -0.355791,-0.33265 -0.436347,-0.50317 -0.02994,-0.0634 -0.0924,-0.25418 -0.138783,-0.424 -0.09032,-0.33062 -0.345679,-1.18513 -0.380156,-1.27209 -0.01147,-0.0289 -0.06728,-0.20767 -0.124033,-0.39725 -0.05676,-0.18957 -0.127292,-0.39262 -0.156745,-0.45121 -0.07542,-0.15002 -0.195048,-0.28436 -0.310822,-0.34903 -0.118748,-0.0663 -0.523326,-0.17023 -0.761065,-0.19544 l -0.233672,-0.0372 c 0.113318,-0.0153 0.189315,-0.046 0.395343,-0.0563 0.206028,-0.0103 0.750299,0.0561 1.661153,0.1345 0.381555,0.0354 0.81905,0.0799 1.143124,0.11437 0.902966,0.10755 1.642332,0.25439 2.143449,0.35674 0.257153,0.0604 0.448636,0.11427 0.678241,0.16292 0.220409,0.0557 0.926665,0.24912 0.89921,0.25939 -0.01303,0.005 -0.224101,0.0718 -0.421648,0.12601 -0.447217,0.12272 -0.629987,0.19326 -0.852969,0.32918 -0.39255,0.23929 -0.522902,0.399 -0.667837,0.81825 -0.10005,0.28943 -0.282312,0.64865 -0.463166,0.91287 -0.140892,0.20584 -0.340498,0.36985 -0.577516,0.47454 -0.200375,0.0885 -0.5884,0.17606 -0.789084,0.17805 z"
           id="path12-8-4"
           sodipodi:nodetypes="cccccccccczccccccccsscc" /><path
           style="fill:#c2410c;fill-opacity:1;fill-rule:nonzero;stroke:none;stroke-width:0.0305216px;stroke-linecap:butt;stroke-linejoin:miter;stroke-opacity:1"
           d="m 63.340273,103.95759 c 0.04446,0.0399 0.105682,0.0885 0.180462,0.12927 0.05392,0.0294 0.114473,0.068 0.183817,0.10087 0.03238,0.0153 0.06743,0.0295 0.104452,0.0395 0.03598,0.01 0.07448,0.0155 0.115151,0.0142 0.07648,-0.002 0.153875,-0.0233 0.226381,-0.0583 0.06898,-0.0333 0.134024,-0.0796 0.188279,-0.13463 0.04734,-0.048 0.09094,-0.10753 0.122415,-0.17376 0.03047,-0.0641 0.05049,-0.13658 0.04894,-0.21106 -8.53e-4,-0.0409 -0.0081,-0.0808 -0.01993,-0.11926 -0.01172,-0.038 -0.02796,-0.0746 -0.0471,-0.10936 -0.03773,-0.0686 -0.08722,-0.1313 -0.137149,-0.1855 -0.05809,-0.0631 -0.128307,-0.10955 -0.199945,-0.14865 -0.07124,-0.0389 -0.144643,-0.071 -0.211974,-0.10479 -0.145313,-0.0729 -0.296414,-0.13342 -0.448902,-0.18066 -0.20426,-0.0633 -0.389313,-0.11454 -0.59407,-0.16874 -0.04272,-0.0113 -0.12047,-0.001 -0.179351,0.0334 -0.01471,0.009 -0.02889,0.0191 -0.04154,0.0315 -0.0129,0.0127 -0.02436,0.0275 -0.03302,0.0447 -0.01185,0.0235 -0.01798,0.048 -0.0204,0.0715 -0.0025,0.0239 -0.0012,0.0473 0.0018,0.0691 0.0061,0.0442 0.02037,0.0876 0.03165,0.12047 0.03357,0.0978 0.08757,0.1831 0.14191,0.25726 0.05961,0.0814 0.121889,0.15338 0.174698,0.2216 0.14887,0.19231 0.273167,0.33479 0.408508,0.45698 9.85e-4,8.9e-4 0.004,0.004 0.0049,0.004 z"
           id="path13-2-1"
           sodipodi:nodetypes="sssssssssssssssssssssssssss" /><ellipse
           style="fill:#fcb174;fill-opacity:1;stroke:none;stroke-width:0.0753864;stroke-miterlimit:10"
           id="path2323-6-6-6-4"
           transform="rotate(-58.659247)"
           ry="0.45924109"
           rx="0.17416109"
           cy="107.96289"
           cx="-55.065296" /></g></g></g></svg>
