<?xml version="1.0" encoding="UTF-8" standalone="no"?>
<!-- Created with Inkscape (http://www.inkscape.org/) -->

<svg
   width="26.009981mm"
   height="25.537531mm"
   viewBox="0 0 26.009981 25.537532"
   version="1.1"
   id="svg5"
   inkscape:version="1.3.2 (091e20ef0f, 2023-11-25, custom)"
   sodipodi:docname="jabsok.svg"
   xml:space="preserve"
   inkscape:export-filename="logo-xs.png"
   inkscape:export-xdpi="27.093334"
   inkscape:export-ydpi="27.093334"
   xmlns:inkscape="http://www.inkscape.org/namespaces/inkscape"
   xmlns:sodipodi="http://sodipodi.sourceforge.net/DTD/sodipodi-0.dtd"
   xmlns="http://www.w3.org/2000/svg"
   xmlns:svg="http://www.w3.org/2000/svg"><sodipodi:namedview
     id="namedview7"
     pagecolor="#fefefe"
     bordercolor="#eeeeee"
     borderopacity="1"
     inkscape:showpageshadow="0"
     inkscape:pageopacity="0"
     inkscape:pagecheckerboard="0"
     inkscape:deskcolor="#fcfcfc"
     inkscape:document-units="mm"
     showgrid="false"
     inkscape:zoom="3.5428502"
     inkscape:cx="30.201672"
     inkscape:cy="54.617043"
     inkscape:window-width="1900"
     inkscape:window-height="1036"
     inkscape:window-x="10"
     inkscape:window-y="10"
     inkscape:window-maximized="1"
     inkscape:current-layer="layer1"
     showguides="true" /><defs
     id="defs2"><inkscape:path-effect
       effect="bspline"
       id="path-effect95870"
       is_visible="true"
       lpeversion="1"
       weight="33.333333"
       steps="2"
       helper_size="0"
       apply_no_weight="true"
       apply_with_weight="true"
       only_selected="false"
       uniform="false" /><inkscape:path-effect
       effect="bspline"
       id="path-effect95140"
       is_visible="true"
       lpeversion="1"
       weight="33.333333"
       steps="2"
       helper_size="0"
       apply_no_weight="true"
       apply_with_weight="true"
       only_selected="false"
       uniform="false" /><inkscape:path-effect
       effect="bspline"
       id="path-effect95136"
       is_visible="true"
       lpeversion="1"
       weight="33.333333"
       steps="2"
       helper_size="0"
       apply_no_weight="true"
       apply_with_weight="true"
       only_selected="false"
       uniform="false" /><inkscape:path-effect
       effect="bspline"
       id="path-effect95136-6"
       is_visible="true"
       lpeversion="1"
       weight="33.333333"
       steps="2"
       helper_size="0"
       apply_no_weight="true"
       apply_with_weight="true"
       only_selected="false"
       uniform="false" /><clipPath
       clipPathUnits="userSpaceOnUse"
       id="clipPath392"><rect
         style="opacity:0.639959;fill:#f9b1cf;fill-opacity:0.639216;stroke-width:1"
         id="rect394"
         width="222.49139"
         height="153.5433"
         x="-96.254814"
         y="-0.085285775" /></clipPath><inkscape:path-effect
       effect="powerstroke"
       id="path-effect18-0-8-9"
       is_visible="true"
       lpeversion="1.3"
       scale_width="1"
       interpolator_type="CubicBezierJohan"
       interpolator_beta="0.2"
       start_linecap_type="zerowidth"
       end_linecap_type="zerowidth"
       offset_points="0.00014032479,0.5"
       linejoin_type="extrp_arc"
       miter_limit="4"
       not_jump="false"
       sort_points="true"
       message="stroke-width:2;stroke-opacity:0.2;fill:#6e6e6f;stroke:#919190" /></defs><g
     inkscape:label="Layer 1"
     inkscape:groupmode="layer"
     id="layer1"
     transform="translate(-47.607275,-88.215309)"><g
       id="g4"><g
         id="g3"><path
           style="fill:#fed7aa;fill-opacity:1;stroke:#9a3412;stroke-width:0.0199846px;stroke-linecap:butt;stroke-linejoin:miter;stroke-opacity:1"
           d="m 49.726252,95.401681 c -0.631741,0.640596 -1.073473,1.470341 -1.395086,2.310585 -0.451419,1.179374 -0.762044,2.460094 -0.707742,3.721744 0.06209,1.44319 0.512667,2.88689 1.17238,4.17197 0.532141,1.03658 1.6063,2.37734 2.661202,2.87222 1.031486,0.48389 1.369062,0.71162 2.404416,0.84256 0.737994,0.0933 1.825516,0.1389 2.545325,-0.0488 0.453411,-0.11821 0.712492,-0.47362 1.172495,-0.56279 0.499601,-0.0968 1.126113,0.0369 1.631167,-0.0255 0.925406,-0.11447 1.643193,-0.34444 2.430727,-0.8437 0.882574,-0.55952 1.75664,-1.38305 2.37176,-2.2278 0.56085,-0.77021 1.061217,-1.61272 1.344264,-2.52247 0.284914,-0.91575 0.360676,-1.90016 0.326241,-2.8586 -0.02715,-0.75438 -0.329035,-1.502393 -0.577442,-2.215225 -0.292887,-0.840481 -0.551392,-1.660501 -1.08542,-2.372557 -0.597457,-0.796646 -1.293202,-1.564565 -2.146721,-2.077524 -0.575272,-0.345728 -1.244399,-0.611411 -1.9155,-0.620516 -0.844672,-0.01146 -1.656696,0.37804 -2.431189,0.715303 -0.502922,0.219006 -0.887606,0.69012 -1.415454,0.839361 -0.425332,0.120256 -0.885174,0.05522 -1.325856,0.021 -0.572767,-0.04447 -1.123899,-0.294541 -1.698388,-0.292974 -0.700339,0.0019 -1.414687,0.117357 -2.068465,0.368449 -0.473925,0.18202 -0.936244,0.443821 -1.292714,0.805289 z"
           id="path2-1-8-0"
           sodipodi:nodetypes="sssssssssssssssssssssss" /><path
           style="fill:#c2410c;fill-opacity:1;stroke:#7c2d12;stroke-width:0.0199846px;stroke-linecap:butt;stroke-linejoin:miter;stroke-opacity:1"
           d="m 55.430181,96.169322 c 0.167247,0.05341 0.333568,-0.113778 0.506312,-0.145142 0.191419,-0.03475 0.425797,0.06959 0.581779,-0.04668 0.264032,-0.196806 0.222487,-0.620581 0.357025,-0.921152 0.120203,-0.268542 0.216674,-0.557067 0.401292,-0.786153 0.176786,-0.219368 0.413941,-0.387919 0.653947,-0.53548 0.259088,-0.159293 0.545644,-0.273715 0.834465,-0.369027 0.364116,-0.120159 0.741969,-0.203456 1.122272,-0.252297 0.265638,-0.03411 0.802979,-0.02755 0.802979,-0.02755 0,0 -0.48356,-0.134798 -0.731933,-0.140573 -0.321968,-0.0074 -0.644233,0.05823 -0.956272,0.137933 -0.362259,0.09253 -0.707133,0.245066 -1.050979,0.391914 -0.248281,0.106042 -0.496101,0.21629 -0.729183,0.352523 -0.246623,0.144146 -0.443486,0.371181 -0.703625,0.489201 -0.316821,0.143735 -0.598404,0.228772 -1.012719,0.252437 -0.240055,0.01373 -0.481222,-0.01779 -0.719721,-0.04834 -0.269188,-0.03449 -0.533548,-0.0997 -0.799859,-0.151953 -0.199727,-0.03919 -0.395993,-0.100372 -0.598466,-0.12113 -0.246411,-0.02525 -0.495741,-0.01643 -0.743102,-0.0034 -0.156604,0.0082 -0.467626,0.05153 -0.467626,0.05153 0,0 0.553551,0.02385 0.825469,0.07238 0.24362,0.04346 0.490604,0.09355 0.716356,0.194921 0.274254,0.123149 0.526801,0.297569 0.755178,0.493079 0.226633,0.194014 0.406035,0.437481 0.598982,0.66502 0.123552,0.145704 0.175446,0.389875 0.35743,0.447988 z"
           id="path3-9-9-23"
           sodipodi:nodetypes="sssssssscsssssssssscsssss" /><path
           style="fill:#7c2d12;fill-opacity:1;stroke:none;stroke-width:0.0423298px;stroke-linecap:butt;stroke-linejoin:miter;stroke-opacity:1"
           d="m 55.697292,96.156825 c 0,0 -0.179221,-1.054739 -0.334321,-1.565201 -0.179507,-0.590816 -0.449653,-1.150302 -0.686289,-1.72065 -0.193088,-0.465408 -0.363462,-0.942386 -0.59843,-1.38812 -0.287881,-0.546113 -0.606007,-1.081652 -0.988825,-1.56597 -0.172306,-0.217987 -0.374315,-0.412342 -0.582998,-0.595802 -0.111101,-0.09767 -0.346925,-0.119438 -0.354346,-0.26718 -0.02067,-0.41088 0.495013,-0.855836 0.906038,-0.838078 0.134662,0.0059 0.189602,0.192522 0.272047,0.299149 0.114706,0.148346 0.214272,0.308379 0.307561,0.471047 0.166049,0.289529 0.294151,0.599274 0.447219,0.895872 0.211336,0.409512 0.457326,0.801506 0.650448,1.219917 0.200136,0.43362 0.355918,0.886439 0.524767,1.333173 0.162947,0.431115 0.325303,0.862697 0.471156,1.29989 0.101375,0.303852 0.193427,0.610845 0.280559,0.919081 0.06448,0.228115 0.135761,0.455175 0.179212,0.688213 0.0494,0.264944 0.14021,0.726383 0.14021,0.726383 0,0 -0.203004,-0.06459 -0.321365,-0.05474 -0.114204,0.0096 -0.312643,0.143009 -0.312643,0.143009 z"
           id="path4-3-7-3-4-7-7"
           sodipodi:nodetypes="cssssssssssssssscsc" /><path
           style="fill:#ffe1be;fill-opacity:1;stroke:#c2410c;stroke-width:0.0133975px;stroke-linecap:butt;stroke-linejoin:miter;stroke-opacity:1"
           d="m 53.226964,102.56459 c -0.168404,-0.35565 -0.30688,-0.73322 -0.366534,-1.12218 -0.04797,-0.31277 -0.100578,-0.65302 0.01076,-0.94921 0.116645,-0.31032 0.381344,-0.556825 0.646588,-0.755701 0.284403,-0.213241 0.64093,-0.30929 0.972114,-0.438417 0.351469,-0.13704 0.827432,-0.183773 1.074326,-0.355852 0.246891,-0.17208 0.287627,-0.324482 0.420227,-0.526884 0.132599,-0.202402 0.248031,-0.499722 0.275602,-0.598222 0.02757,-0.0985 0.306501,0.276905 0.408042,0.378493 0.101545,0.101586 0.09718,0.128468 0.207482,0.223891 0.110298,0.09543 0.271809,0.246856 0.469325,0.323182 0.197518,0.07633 0.461796,0.0723 0.694348,0.09394 0.272827,0.02539 0.555883,-0.0275 0.820943,0.04199 0.252542,0.06617 0.495131,0.188529 0.701298,0.348675 0.246658,0.191588 0.425075,0.459306 0.611734,0.709712 0.21211,0.284543 0.460622,0.560333 0.574341,0.896523 0.136092,0.40233 0.205167,0.85707 0.105098,1.26983 -0.07088,0.29236 -0.231037,0.53979 -0.40871,0.78255 -0.149223,0.20388 -0.300971,0.32565 -0.495959,0.50228 -0.205806,0.18641 -0.459599,0.3362 -0.692632,0.4872 -0.325761,0.2111 -0.663458,0.40586 -1.053593,0.6262 -0.249369,0.14084 -0.550456,0.41807 -0.94037,0.48228 -0.197244,0.0325 -0.882684,-0.11921 -1.073012,-0.18033 -0.444786,-0.14284 -1.17037,-0.40785 -1.367391,-0.47885 -0.31195,-0.11243 -0.574397,-0.31128 -0.813866,-0.54064 -0.348702,-0.33397 -0.573519,-0.78408 -0.780153,-1.22046 z"
           id="path5-7-2-3-5"
           sodipodi:nodetypes="ssssszzzzzzsssssssssssssss" /><path
           style="fill:#ffedd5;fill-opacity:1;stroke:#c2410c;stroke-width:0.0120192px;stroke-linecap:butt;stroke-linejoin:miter;stroke-opacity:1"
           d="m 55.513097,103.63508 c -0.297802,-0.12977 -0.399872,-0.51643 -0.549937,-0.80454 -0.101864,-0.19555 -0.19101,-0.40252 -0.233528,-0.61888 -0.05317,-0.27053 -0.07808,-0.55676 -0.02257,-0.82682 0.05478,-0.26646 0.19941,-0.50936 0.342282,-0.74085 0.123167,-0.19957 0.296506,-0.36353 0.438595,-0.55009 0.113061,-0.148449 0.283897,-0.411348 0.348183,-0.447259 0.05125,-0.02862 0.12497,0.0016 0.172366,0.03618 0.100918,0.07376 0.136341,0.21107 0.184831,0.326279 0.104364,0.24798 0.165137,0.5129 0.224106,0.7754 0.09109,0.4055 0.176169,0.81581 0.199351,1.23077 0.01411,0.2528 0.01848,0.51167 -0.03718,0.75867 -0.04498,0.19961 -0.0969,0.4165 -0.235786,0.56676 -0.119251,0.12901 -0.301974,0.18624 -0.469226,0.24001 -0.116008,0.0373 -0.249791,0.10305 -0.361501,0.0544 z"
           id="path6-8-6-9"
           sodipodi:nodetypes="sssssssssssssss" /><path
           style="fill:#7c2d12;fill-opacity:1;stroke:none;stroke-width:0.0120192px;stroke-linecap:butt;stroke-linejoin:miter;stroke-opacity:1"
           d="m 55.774634,102.77646 c 0.160845,-0.0972 0.238776,-0.29406 0.322909,-0.46208 0.0792,-0.15815 0.132578,-0.33027 0.166166,-0.50392 0.03035,-0.15692 0.03571,-0.31877 0.03047,-0.47851 -0.0057,-0.17614 -0.03532,-0.35113 -0.0681,-0.52428 -0.02418,-0.12773 -0.0449,-0.25823 -0.09464,-0.37834 -0.03874,-0.0935 -0.09498,-0.17987 -0.156198,-0.26052 -0.04203,-0.0554 -0.07714,-0.13043 -0.14342,-0.15139 -0.04331,-0.0137 -0.09591,0.002 -0.133539,0.0271 -0.03733,0.0252 -0.05747,0.0711 -0.07428,0.11295 -0.0258,0.0642 -0.04251,0.12501 -0.07553,0.18576 -0.0369,0.0679 -0.07783,0.1211 -0.130567,0.17759 -0.0843,0.0903 -0.164848,0.18483 -0.235597,0.28611 -0.06392,0.0915 -0.118425,0.18952 -0.169444,0.28879 -0.04734,0.0921 -0.10429,0.18265 -0.12638,0.28384 -0.04128,0.18915 -0.04821,0.28178 -0.04658,0.42437 0.0017,0.1513 0.02243,0.30895 0.05808,0.456 0.02759,0.11384 0.07488,0.22502 0.140272,0.32221 0.04809,0.0715 0.103375,0.14678 0.180665,0.18487 0.09777,0.0482 0.215674,0.0392 0.324662,0.0388 0.07763,-3.1e-4 0.164609,0.0109 0.23106,-0.0292 z"
           id="path12-1-4-1-2"
           sodipodi:nodetypes="sssssssssssssssssssss" /><path
           style="fill:#ffedd5;fill-opacity:1;stroke:none;stroke-width:0.00832574px;stroke-linecap:butt;stroke-linejoin:miter;stroke-opacity:1"
           d="m 55.20149,102.25538 c -0.06662,-0.0527 -0.05717,-0.16099 -0.07088,-0.24484 -0.01799,-0.10995 -0.02332,-0.2229 -0.01421,-0.33393 0.0051,-0.0619 0.02111,-0.12278 0.0383,-0.18252 0.01854,-0.0644 0.03682,-0.13024 0.06967,-0.18869 0.03371,-0.06 0.07965,-0.11298 0.128248,-0.16167 0.03235,-0.0324 0.06201,-0.0913 0.107446,-0.0856 0.04463,0.006 0.065,0.0657 0.08151,0.10756 0.03524,0.0893 0.02264,0.19074 0.02964,0.28649 0.0063,0.086 0.02228,0.17303 0.01101,0.25857 -0.0098,0.0751 -0.03908,0.14671 -0.06789,0.21671 -0.02974,0.0723 -0.06161,0.14519 -0.107654,0.20837 -0.03425,0.047 -0.06877,0.1027 -0.123005,0.12368 -0.02562,0.01 -0.06076,0.0129 -0.08229,-0.004 z"
           id="path13-0-2-2"
           sodipodi:nodetypes="ssssssssssssss" /><path
           style="fill:#ffedd5;fill-opacity:1;stroke:#c2410c;stroke-width:0.0121308px;stroke-linecap:butt;stroke-linejoin:miter;stroke-opacity:1"
           d="m 58.653451,103.22406 c 0.239566,-0.22383 0.206336,-0.62609 0.251988,-0.95075 0.03099,-0.22037 0.04603,-0.44732 0.01356,-0.66747 -0.04061,-0.27529 -0.113393,-0.55599 -0.25724,-0.7942 -0.14193,-0.23502 -0.361396,-0.41735 -0.575346,-0.58942 -0.184439,-0.14834 -0.40461,-0.245899 -0.602671,-0.375493 -0.157597,-0.103117 -0.408736,-0.295641 -0.481999,-0.308138 -0.05841,-0.01 -0.118368,0.04358 -0.151781,0.09252 -0.07114,0.104191 -0.05856,0.246752 -0.06586,0.372701 -0.0157,0.27109 0.01577,0.5436 0.04817,0.8132 0.05003,0.41647 0.10739,0.83549 0.225206,1.23807 0.07177,0.24526 0.154893,0.49299 0.291095,0.70922 0.110072,0.17474 0.232569,0.36358 0.415352,0.4597 0.156933,0.0825 0.350056,0.0754 0.527292,0.0702 0.122934,-0.004 0.272371,0.0139 0.362236,-0.0701 z"
           id="path6-8-7-3-9"
           sodipodi:nodetypes="sssssssssssssss" /><path
           style="fill:#7c2d12;fill-opacity:1;stroke:none;stroke-width:0.0121308px;stroke-linecap:butt;stroke-linejoin:miter;stroke-opacity:1"
           d="m 58.115225,102.49538 c -0.185768,-0.0382 -0.326278,-0.19928 -0.462952,-0.33076 -0.128645,-0.12377 -0.237451,-0.26952 -0.327937,-0.4234 -0.08176,-0.13905 -0.141422,-0.29121 -0.190281,-0.44495 -0.05388,-0.16951 -0.08476,-0.34594 -0.111929,-0.52172 -0.02004,-0.12967 -0.04431,-0.2608 -0.03749,-0.39183 0.0053,-0.10205 0.02973,-0.20313 0.06078,-0.30049 0.02132,-0.0668 0.02942,-0.150081 0.08541,-0.19236 0.03658,-0.02762 0.09178,-0.03078 0.136157,-0.01927 0.04402,0.01143 0.07866,0.0483 0.108747,0.08242 0.04617,0.05235 0.08257,0.1046 0.13447,0.15126 0.058,0.0522 0.114863,0.089 0.184075,0.12495 0.110637,0.0575 0.219127,0.12026 0.320569,0.19277 0.09164,0.0655 0.176546,0.14038 0.258542,0.21762 0.07609,0.0717 0.160789,0.13861 0.215906,0.22743 0.103035,0.16603 0.140848,0.25183 0.187353,0.38802 0.04935,0.14452 0.08279,0.30148 0.09845,0.45339 0.0121,0.1176 0.0046,0.23931 -0.02484,0.3538 -0.02166,0.0842 -0.04887,0.17449 -0.109557,0.23677 -0.07676,0.0788 -0.191982,0.10994 -0.295797,0.14631 -0.07395,0.0259 -0.152929,0.0658 -0.229677,0.05 z"
           id="path12-1-6-1-7"
           sodipodi:nodetypes="sssssssssssssssssssss" /><path
           style="fill:#ffedd5;fill-opacity:1;stroke:none;stroke-width:0.00840305px;stroke-linecap:butt;stroke-linejoin:miter;stroke-opacity:1"
           d="m 58.484833,101.80646 c 0.04561,-0.0726 1.43e-4,-0.17241 -0.0151,-0.2568 -0.01996,-0.11066 -0.05295,-0.21991 -0.09909,-0.32246 -0.02574,-0.0572 -0.06146,-0.10969 -0.09796,-0.16072 -0.03936,-0.055 -0.07892,-0.1115 -0.129877,-0.15603 -0.05227,-0.0457 -0.113865,-0.0806 -0.176502,-0.11058 -0.0417,-0.0199 -0.08977,-0.066 -0.131073,-0.0452 -0.04058,0.0204 -0.0397,0.0844 -0.0413,0.1298 -0.0035,0.0968 0.04276,0.18909 0.06839,0.28254 0.02302,0.084 0.03714,0.17212 0.07664,0.24971 0.03467,0.0681 0.08663,0.12639 0.137626,0.18329 0.05267,0.0588 0.107554,0.11736 0.172652,0.16194 0.04842,0.0332 0.100046,0.0745 0.158705,0.0762 0.0277,7.9e-4 0.06217,-0.008 0.0769,-0.0317 z"
           id="path13-0-5-9-3"
           sodipodi:nodetypes="ssssssssssssss" /><path
           style="fill:#c2410c;fill-opacity:1;stroke:#7c2d12;stroke-width:0.0199846px;stroke-linecap:butt;stroke-linejoin:miter;stroke-opacity:1"
           d="m 57.083979,107.81102 c -0.06845,0.19748 -0.244134,0.34179 -0.392601,0.4889 -0.06908,0.0684 -0.137251,0.14873 -0.229132,0.18058 -0.213119,0.0739 -0.463574,-0.0739 -0.676683,-3e-5 -0.234158,0.0812 -0.373468,0.32935 -0.583852,0.46035 -0.205466,0.12794 -0.420558,0.25332 -0.655041,0.31335 -0.249645,0.0639 -0.771913,0.0425 -0.771913,0.0425 0,0 0.709994,0.11667 1.068561,0.13214 0.359358,0.0155 0.723224,0.0175 1.078342,-0.0397 0.254796,-0.041 0.505621,-0.11582 0.74356,-0.21576 0.258854,-0.10873 0.467317,-0.32524 0.733906,-0.41332 0.220243,-0.0728 0.45869,-0.0764 0.690402,-0.087 0.272131,-0.0125 0.544576,0.0388 0.816774,0.0279 0.258509,-0.0104 0.516705,-0.0414 0.771078,-0.0886 0.271927,-0.0505 0.541624,-0.11805 0.803376,-0.20737 0.242136,-0.0826 0.476668,-0.18792 0.705451,-0.30248 0.156548,-0.0784 0.30657,-0.16958 0.454929,-0.26255 0.13296,-0.0833 0.389538,-0.2643 0.389538,-0.2643 0,0 -0.472243,0.15691 -0.709305,0.23248 -0.184048,0.0587 -0.364648,0.13117 -0.553563,0.1715 -0.221953,0.0474 -0.449025,0.085 -0.675964,0.0817 -0.270945,-0.004 -0.533477,-0.13847 -0.803877,-0.12086 -0.135739,0.009 -0.262187,0.15225 -0.392268,0.11248 -0.309253,-0.0946 -0.491485,-0.44802 -0.623556,-0.7432 -0.08159,-0.18235 -0.289086,-0.68969 -0.331082,-0.82053 -0.0455,-0.14177 -0.300548,-0.72872 -0.389047,-0.58785 -0.08994,0.14317 -0.197005,0.69415 -0.230192,0.94182 -0.04651,0.3471 -0.179209,0.79868 -0.237841,0.96783 z"
           id="path4-0-3-7-6"
           sodipodi:nodetypes="sssssscsssssssssscssssssssss" /></g><g
         id="g1"><path
           id="path1-2-0-1"
           style="display:inline;fill:#c2410c;fill-opacity:1;stroke:#7c2d12;stroke-width:0.0286942px;stroke-linecap:butt;stroke-linejoin:miter;stroke-opacity:1"
           d="m 67.864644,103.76597 c 1.648538,0.19766 2.344932,0.64476 3.171347,1.12166 0.56193,0.32427 0.821041,0.44701 1.599508,1.15437 0.508295,0.46187 0.862649,1.26873 0.945411,1.72386 0.0619,0.34043 0.0195,0.94313 -0.47568,1.57431 -0.877723,1.11881 -1.779657,2.067 -2.985809,2.82023 -1.024757,0.63995 -2.180389,1.11685 -3.367834,1.33969 -1.33478,0.25049 -2.783247,0.39099 -4.074126,-0.0309 -1.318662,-0.43099 -2.56021,-1.31113 -3.37709,-2.43241 -0.694895,-0.95383 -1.027337,-2.19022 -1.088866,-3.36872 -0.04772,-0.91404 0.165424,-1.86641 0.641126,-2.64837 0.343836,-0.5652 0.885139,-0.97225 1.462427,-1.2954 0.56734,-0.31758 1.200736,-0.53547 1.842373,-0.64052 0.533675,-0.0874 3.469794,0.41394 5.707213,0.68221 z"
           sodipodi:nodetypes="ssssssssssssss" /><path
           style="display:inline;fill:#fed7aa;fill-opacity:1;stroke:#9a3412;stroke-width:0.0286942px;stroke-linecap:butt;stroke-linejoin:miter;stroke-opacity:1"
           d="m 62.301002,103.05021 c 2.347807,0.36605 4.051032,0.2588 6.694436,1.09569 0.65588,0.20765 1.129195,0.97439 1.541765,1.52491 0.368406,0.49159 0.714929,1.06147 0.772861,1.67304 0.08521,0.89946 -0.208994,1.84422 -0.65444,2.63027 -0.628398,1.1089 -1.722965,2.23493 -2.939562,2.75883 -1.037557,0.44681 -1.882796,0.86351 -3.01053,0.92979 -0.993131,0.0584 -2.014624,-0.15828 -2.936843,-0.5314 -0.706314,-0.28577 -1.28297,-0.70045 -1.805754,-1.25473 -0.567224,-0.6014 -1.062161,-1.38011 -1.350546,-2.15487 -0.284643,-0.76471 -0.400838,-1.57769 -0.396882,-2.39365 0.003,-0.6083 0.101875,-1.2116 0.34306,-1.77005 0.205088,-0.47487 0.478188,-0.95274 0.866184,-1.29482 0.367047,-0.32362 0.837778,-0.51324 1.28911,-0.70232 0.29276,-0.12265 1.273517,-0.55959 1.587141,-0.51069 z"
           id="path2-6-7"
           sodipodi:nodetypes="sssssssssssssss" /><path
           style="fill:#ffe1be;fill-opacity:1;stroke:none;stroke-width:0.0174819;stroke-miterlimit:10"
           d="m 64.964025,106.93223 c -0.220981,0.002 -0.436919,-0.0622 -0.606715,-0.18101 -0.171153,-0.11973 -0.355812,-0.33266 -0.436373,-0.50319 -0.02994,-0.0634 -0.09241,-0.25419 -0.138791,-0.42401 -0.09032,-0.33063 -0.3457,-1.18517 -0.380179,-1.27213 -0.01147,-0.0289 -0.06728,-0.20768 -0.124041,-0.39727 -0.05676,-0.18958 -0.127299,-0.39263 -0.156754,-0.45123 -0.07542,-0.15002 -0.195059,-0.28437 -0.310841,-0.34904 -0.118754,-0.0663 -0.523357,-0.17024 -0.76111,-0.19545 l -0.17139,-0.0182 0.120161,-0.0162 c 0.264521,-0.0358 0.79215,0.008 1.879185,0.15432 0.350382,0.0473 0.86963,0.10915 1.153884,0.13744 0.589334,0.0586 0.939248,0.10764 1.421253,0.19901 0.185536,0.0352 0.54012,0.0868 0.787963,0.11471 0.247843,0.0279 0.517629,0.0677 0.599523,0.0884 0.220422,0.0557 0.885347,0.28316 0.857891,0.29343 -0.01303,0.005 -0.185335,0.0532 -0.382893,0.10743 -0.447244,0.12273 -0.630025,0.19327 -0.853021,0.3292 -0.392574,0.23929 -0.522933,0.39901 -0.667877,0.81828 -0.100056,0.28943 -0.282329,0.64867 -0.463194,0.9129 -0.1409,0.20584 -0.340519,0.36986 -0.57755,0.47456 -0.200388,0.0885 -0.588436,0.17606 -0.789131,0.17805 z"
           id="path12-8-4" /><path
           style="fill:#7c2d12;fill-opacity:1;fill-rule:nonzero;stroke:none;stroke-width:0.0286942px;stroke-linecap:butt;stroke-linejoin:miter;stroke-opacity:1"
           d="m 64.658825,104.77472 c 0.04446,0.0399 0.105688,0.0885 0.180473,0.12928 0.05392,0.0294 0.11448,0.068 0.183828,0.10087 0.03238,0.0153 0.06743,0.0295 0.104458,0.0395 0.03598,0.01 0.07448,0.0155 0.115159,0.0142 0.07648,-0.002 0.153883,-0.0233 0.226394,-0.0583 0.06898,-0.0333 0.134031,-0.0796 0.18829,-0.13464 0.04734,-0.048 0.09094,-0.10753 0.122422,-0.17377 0.03047,-0.0641 0.0505,-0.13657 0.04895,-0.21106 -8.53e-4,-0.0409 -0.0081,-0.0808 -0.01993,-0.11927 -0.01172,-0.038 -0.02796,-0.0746 -0.0471,-0.10936 -0.03773,-0.0686 -0.08722,-0.1313 -0.137157,-0.18551 -0.05809,-0.0631 -0.128315,-0.10955 -0.199957,-0.14865 -0.07125,-0.0389 -0.144651,-0.071 -0.211987,-0.10479 -0.145322,-0.0729 -0.296431,-0.13343 -0.448928,-0.18068 -0.204273,-0.0633 -0.389337,-0.11453 -0.594106,-0.16874 -0.04272,-0.0113 -0.120478,-0.001 -0.179362,0.0334 -0.01471,0.009 -0.02889,0.0191 -0.04154,0.0315 -0.0129,0.0127 -0.02436,0.0275 -0.03302,0.0447 -0.01185,0.0235 -0.01798,0.048 -0.0204,0.0715 -0.0025,0.0239 -0.0012,0.0473 0.0018,0.0691 0.0061,0.0442 0.02037,0.0876 0.03165,0.12048 0.03357,0.0978 0.08757,0.1831 0.141918,0.25727 0.05961,0.0814 0.121897,0.15338 0.174709,0.2216 0.148879,0.19232 0.273183,0.3348 0.408532,0.457 9.85e-4,9e-4 0.004,0.004 0.0049,0.004 z"
           id="path13-2-1"
           sodipodi:nodetypes="sssssssssssssssssssssssssss" /><ellipse
           style="fill:#ffedd5;fill-opacity:1;stroke:none;stroke-width:0.070873;stroke-miterlimit:10"
           id="path2323-6-6-6-4"
           transform="matrix(0.5201362,-0.85408333,0.85409487,0.52011724,0,0)"
           ry="0.45926565"
           rx="0.17416839"
           cy="109.51468"
           cx="-55.078571" /></g></g></g></svg>
